<?xml version="1.0" standalone="no"?><!DOCTYPE svg PUBLIC "-//W3C//DTD SVG 1.1//EN" "http://www.w3.org/Graphics/SVG/1.1/DTD/svg11.dtd"><svg t="1719150195837" class="icon" viewBox="0 0 1024 1024" version="1.1" xmlns="http://www.w3.org/2000/svg" p-id="9427" xmlns:xlink="http://www.w3.org/1999/xlink" width="200" height="200"><path d="M701.121727 635.318009c-33.771737-29.985209-73.376774-51.78333-116.051969-64.268639 28.552469-24.76594 46.6664-61.30082 46.6664-102.031581 0-74.502499-60.584449-135.086948-135.086948-135.086948s-135.086948 60.584449-135.086948 135.086948c0 12.485309 10.029182 22.514491 22.514491 22.514491s22.514491-10.029182 22.514491-22.514491c0-49.634219 40.423746-90.057965 90.057965-90.057965s90.057965 40.423746 90.057965 90.057965c0 47.280432-36.739556 86.271437-83.098941 89.750949-1.43274 0-2.763142 0-4.195882 0-125.262443 0-236.197482 76.446932-281.942834 190.145113 10.438537 13.815711 21.798121 26.812712 33.976414 39.093344 32.134319-107.046172 129.765341-181.548671 241.928443-184.107136 1.023386 0.204677 2.149111 0.204677 3.274835 0.204677 2.763142 0 5.423946-0.102339 8.084749-0.204677 126.695183 2.558465 233.639017 97.324006 251.138917 222.893464 13.918049-10.336198 27.119728-21.491105 39.502698-33.56706C781.15051 732.437338 748.29982 677.276834 701.121727 635.318009z" p-id="9428" fill="#ffffff"></path><path d="M923.912852 347.644213c-21.798121-51.476314-52.909055-97.631021-92.514092-137.236058-39.605037-39.605037-85.862083-70.818309-137.236058-92.514092C640.844293 95.379572 584.353388 83.917649 526.020388 83.917649s-114.823906 11.461923-168.142315 33.976414c-51.476314 21.798121-97.631021 52.909055-137.236058 92.514092s-70.818309 85.862083-92.514092 137.236058C105.613432 400.962622 94.151509 457.453528 94.151509 515.786528s11.461923 114.823906 33.976414 168.142315c21.798121 51.476314 52.909055 97.631021 92.514092 137.236058 39.605037 39.605037 85.862083 70.818309 137.236058 92.514092 53.21607 22.514491 109.809314 33.976414 168.142315 33.976414s114.823906-11.461923 168.142315-33.976414c51.476314-21.798121 97.631021-52.909055 137.236058-92.514092 39.605037-39.605037 70.818309-85.862083 92.514092-137.236058 22.514491-53.21607 33.976414-109.809314 33.976414-168.142315S946.427344 400.962622 923.912852 347.644213zM795.375575 793.226464c-12.38297 12.075954-25.584649 23.230861-39.502698 33.56706C691.501899 874.380971 611.984809 902.626424 526.020388 902.626424c-107.250849 0-204.472516-43.903258-274.574455-114.619228-12.178293-12.280632-23.537877-25.379972-33.976414-39.093344C168.346992 684.031181 139.180492 603.286028 139.180492 515.786528c0-213.273636 173.56626-386.839896 386.839896-386.839896s386.839896 173.56626 386.839896 386.839896C912.860284 624.470118 867.831301 722.919848 795.375575 793.226464z" p-id="9429" fill="#ffffff"></path></svg>