<?xml version="1.0" standalone="no"?><!DOCTYPE svg PUBLIC "-//W3C//DTD SVG 1.1//EN" "http://www.w3.org/Graphics/SVG/1.1/DTD/svg11.dtd"><svg height="657" node-id="1" sillyvg="true" template-height="657" template-width="904" version="1.1" viewBox="0 0 904 657" width="904" xmlns="http://www.w3.org/2000/svg" xmlns:xlink="http://www.w3.org/1999/xlink"><defs node-id="114"><linearGradient gradientUnits="objectBoundingBox" id="a8b3c97d-e0d9-42bd-b729-a4d45980fc6b" node-id="3" spreadMethod="pad" x1="736" x2="736" y1="734.18" y2="307.18"><stop offset="0" stop-color="#808080" stop-opacity="0.25"></stop><stop offset="0.54" stop-color="#808080" stop-opacity="0.12"></stop><stop offset="1" stop-color="#808080" stop-opacity="0.1"></stop></linearGradient><linearGradient gradientUnits="objectBoundingBox" id="b66fe85f-ad74-4eee-9789-144feaee2a7f" node-id="7" spreadMethod="pad" x1="381.42" x2="381.42" y1="718.18" y2="312.18"><stop offset="0" stop-color="#808080" stop-opacity="0.25"></stop><stop offset="0.54" stop-color="#808080" stop-opacity="0.12"></stop><stop offset="1" stop-color="#808080" stop-opacity="0.1"></stop></linearGradient></defs><g node-id="556"><path d="M 108.90 514.60 L 108.00 517.70 L 105.30 520.80 L 102.90 522.50 L 99.70 524.20 L 95.70 525.90 L 86.80 528.30 L 81.40 529.30 L 70.10 530.40 L 63.90 530.60 L 57.60 530.40 L 46.40 529.30 L 40.90 528.30 L 32.10 525.90 L 28.00 524.20 L 24.80 522.50 L 22.40 520.80 L 20.80 519.20 L 19.10 516.10 L 18.90 514.60 L 19.10 513.00 L 20.80 509.90 L 24.80 506.60 L 28.00 504.90 L 32.10 503.30 L 40.90 500.80 L 46.40 499.80 L 57.60 498.70 L 63.90 498.60 L 70.10 498.70 L 81.40 499.80 L 86.80 500.80 L 95.70 503.30 L 99.70 504.90 L 102.90 506.60 L 105.30 508.30 L 108.00 511.50 L 108.90 514.60 Z" fill="#000000" fill-opacity="0.1" fill-rule="nonzero" group-id="1" node-id="135" stroke="none" target-height="31.99997" target-width="90" target-x="18.9" target-y="498.6"></path></g><g node-id="557"><path d="M 835.90 580.70 L 835.00 583.80 L 832.30 586.90 L 829.90 588.70 L 826.70 590.40 L 822.70 592.00 L 813.80 594.50 L 808.40 595.50 L 797.10 596.60 L 790.90 596.70 L 784.60 596.60 L 773.30 595.50 L 767.90 594.50 L 759.00 592.00 L 755.00 590.40 L 751.80 588.70 L 749.40 586.90 L 747.80 585.40 L 746.10 582.30 L 745.90 580.70 L 746.10 579.20 L 747.80 576.10 L 749.40 574.50 L 751.80 572.80 L 755.00 571.10 L 759.00 569.40 L 767.90 567.00 L 773.30 566.00 L 784.60 564.90 L 790.90 564.70 L 797.10 564.90 L 808.40 566.00 L 813.80 567.00 L 822.70 569.40 L 826.70 571.10 L 829.90 572.80 L 832.30 574.50 L 835.00 577.60 L 835.90 580.70 Z" fill="#000000" fill-opacity="0.1" fill-rule="nonzero" group-id="2" node-id="140" stroke="none" target-height="32" target-width="90" target-x="745.9" target-y="564.7"></path></g><g node-id="558"><path d="M 533.75 19.95 L 522.15 24.15 L 510.65 27.85 L 498.95 31.15 L 487.25 33.85 L 475.55 36.15 L 463.75 37.95 L 451.85 39.35 L 439.95 40.25 L 428.05 40.65 L 416.15 40.55 L 404.25 40.05 L 392.35 38.95 L 380.55 37.45 L 368.75 35.55 L 357.05 33.05 L 345.35 30.15 L 333.75 26.65 L 309.75 18.55 L 297.15 14.55 L 284.25 11.05 L 271.25 7.95 L 258.15 5.45 L 244.95 3.45 L 234.95 2.45 L 225.05 1.75 L 215.15 1.55 L 205.35 1.75 L 195.55 2.45 L 185.85 3.65 L 176.35 5.35 L 166.85 7.55 L 159.45 9.75 L 152.05 12.35 L 144.85 15.35 L 137.75 18.75 L 130.75 22.65 L 124.05 26.85 L 117.45 31.45 L 110.95 36.65 L 104.55 42.35 L 98.25 48.65 L 92.45 55.05 L 86.85 62.05 L 81.35 69.75 L 75.95 78.15 L 70.75 87.25 L 66.15 96.15 L 61.65 105.95 L 57.35 116.45 L 53.35 127.85 L 49.45 140.15 L 44.15 159.25 L 39.75 177.35 L 36.15 194.65 L 33.25 211.15 L 30.85 227.95 L 29.05 244.05 L 27.95 259.25 L 27.35 273.65 L 27.25 288.35 L 27.75 302.35 L 28.65 315.55 L 29.95 328.05 L 31.75 340.75 L 33.95 352.75 L 36.35 364.05 L 39.15 374.75 L 42.35 385.55 L 49.45 405.15 L 53.15 414.05 L 58.75 425.85 L 64.35 436.65 L 70.15 446.35 L 76.25 455.95 L 82.25 464.45 L 88.15 472.05 L 100.05 485.75 L 113.45 498.95 L 119.95 504.65 L 126.05 509.55 L 133.85 514.95 L 152.85 519.65 L 185.85 529.25 L 213.45 538.55 L 228.25 543.95 L 243.05 549.95 L 267.95 561.05 L 286.95 570.95 L 296.15 576.25 L 304.85 581.75 L 324.05 595.25 L 335.25 602.55 L 346.55 609.45 L 357.95 615.85 L 369.65 621.85 L 381.45 627.45 L 393.45 632.65 L 405.45 637.25 L 417.55 641.45 L 429.85 645.25 L 442.25 648.55 L 454.65 651.45 L 467.15 653.85 L 479.75 655.75 L 492.35 657.15 L 505.05 658.15 L 517.75 658.65 L 530.45 658.65 L 543.15 658.15 L 555.95 657.15 L 568.65 655.75 L 581.35 653.75 L 593.95 651.35 L 606.65 648.35 L 619.25 644.85 L 632.65 640.65 L 645.55 636.15 L 658.05 631.35 L 670.25 626.05 L 681.95 620.35 L 692.95 614.35 L 701.05 609.45 L 708.65 604.35 L 715.85 599.05 L 722.55 593.55 L 729.05 587.65 L 735.05 581.55 L 740.45 575.15 L 745.35 568.55 L 749.85 561.55 L 753.75 554.35 L 757.15 546.85 L 759.85 538.95 L 765.35 520.15 L 770.05 502.45 L 773.95 485.75 L 777.45 468.85 L 783.15 437.95 L 792.75 376.05 L 795.85 358.45 L 798.15 347.05 L 800.85 336.35 L 803.65 326.55 L 806.15 319.25 L 809.05 312.25 L 812.05 305.75 L 815.45 299.65 L 819.25 293.65 L 823.45 288.05 L 828.15 282.75 L 833.35 277.65 L 838.85 273.05 L 845.05 268.65 L 851.95 264.45 L 865.05 257.65 L 870.05 254.55 L 874.65 251.15 L 878.85 247.55 L 882.65 243.75 L 887.05 238.55 L 890.85 233.05 L 894.25 227.25 L 897.05 221.25 L 899.35 214.95 L 901.35 208.45 L 902.75 201.75 L 903.85 194.85 L 904.65 180.95 L 903.85 166.75 L 902.55 157.35 L 900.75 148.05 L 898.25 138.95 L 895.25 130.05 L 891.75 121.55 L 887.85 113.55 L 881.05 102.25 L 873.55 92.55 L 869.35 88.15 L 865.15 84.25 L 860.85 80.85 L 856.45 78.05 L 851.75 75.55 L 846.95 73.75 L 842.25 72.55 L 837.35 71.95 L 827.15 71.75 L 815.05 72.05 L 742.65 76.85 L 726.75 77.45 L 710.85 77.55 L 695.15 77.15 L 684.75 76.45 L 674.65 75.35 L 664.85 73.85 L 655.15 71.95 L 646.05 69.55 L 637.35 66.55 L 630.95 63.95 L 624.95 61.05 L 619.35 57.75 L 614.05 54.05 L 609.05 50.05 L 604.45 45.55 L 600.25 40.55 L 593.25 30.85 L 590.15 27.15 L 586.85 24.05 L 583.45 21.45 L 579.85 19.25 L 576.05 17.45 L 572.25 16.05 L 568.25 15.15 L 562.85 14.55 L 557.25 14.55 L 551.45 15.15 L 545.65 16.25 L 539.75 17.85 L 533.75 19.95 Z" fill="#000000" fill-opacity="0.1" fill-rule="nonzero" group-id="3" node-id="145" stroke="none" target-height="657.1" target-width="877.4" target-x="27.249998" target-y="1.5500183"></path></g><g node-id="559"><path d="M 789.00 583.00 L 791.60 571.30 L 793.20 558.80 L 793.70 551.70 L 793.40 538.60 L 791.90 527.80 L 790.60 522.40 L 788.90 517.20 L 784.70 507.30 L 783.00 502.40 L 781.70 497.40 L 780.90 492.30 L 780.40 487.10 L 780.40 482.00 L 780.80 476.80 L 781.60 471.60 L 783.10 465.20 L 785.00 458.80 L 787.30 452.60" fill="none" group-id="4" node-id="150" stroke="#535461" stroke-linecap="butt" stroke-width="2" target-height="130.4" target-width="13.299988" target-x="780.4" target-y="452.6"></path></g><g node-id="560"><path d="M 778.40 433.60 L 779.30 437.60 L 781.60 442.70 L 787.50 453.20 L 793.30 442.70 L 795.60 437.60 L 796.50 433.60 L 796.20 431.20 L 795.30 429.10 L 793.90 427.20 L 792.00 425.80 L 789.90 424.90 L 787.50 424.60 L 785.00 424.90 L 782.90 425.80 L 781.00 427.20 L 779.60 429.10 L 778.70 431.20 L 778.40 433.60 Z" fill="#6c63ff" fill-rule="nonzero" group-id="5" node-id="155" stroke="none" target-height="28.600006" target-width="18.099976" target-x="778.4" target-y="424.6"></path></g><g node-id="561"><path d="M 763.40 461.40 L 766.40 464.20 L 771.00 467.20 L 781.60 472.80 L 780.90 460.80 L 779.30 453.00 L 778.60 451.50 L 777.00 449.70 L 775.10 448.30 L 772.90 447.60 L 770.60 447.40 L 768.30 447.80 L 766.10 448.80 L 764.30 450.40 L 762.90 452.40 L 762.20 454.50 L 762.00 456.80 L 762.40 459.10 L 763.40 461.40 Z" fill="#6c63ff" fill-rule="nonzero" group-id="6" node-id="160" stroke="none" target-height="25.399994" target-width="19.599976" target-x="762" target-y="447.4"></path></g><g node-id="562"><path d="M 764.10 508.70 L 768.00 509.70 L 773.60 509.90 L 785.60 509.40 L 778.90 499.50 L 775.30 495.20 L 772.20 492.60 L 769.90 491.80 L 767.60 491.60 L 765.30 492.00 L 763.20 493.00 L 761.40 494.50 L 760.10 496.60 L 759.30 498.90 L 759.10 501.20 L 759.50 503.50 L 760.50 505.60 L 762.10 507.30 L 764.10 508.70 Z" fill="#6c63ff" fill-rule="nonzero" group-id="7" node-id="165" stroke="none" target-height="18.299988" target-width="26.5" target-x="759.1" target-y="491.6"></path></g><g node-id="563"><path d="M 772.60 544.50 L 774.10 545.30 L 778.90 546.70 L 787.50 548.10 L 793.70 548.80 L 788.80 537.80 L 786.00 533.00 L 783.40 529.90 L 781.30 528.70 L 779.00 528.20 L 776.70 528.20 L 774.50 528.90 L 772.50 530.00 L 770.70 531.80 L 769.60 533.90 L 769.00 536.20 L 769.10 538.50 L 769.70 540.80 L 770.90 542.80 L 772.60 544.50 Z" fill="#6c63ff" fill-rule="nonzero" group-id="8" node-id="170" stroke="none" target-height="20.599976" target-width="24.700012" target-x="769" target-y="528.2"></path></g><g node-id="564"><path d="M 800.70 473.80 L 797.20 475.90 L 792.00 477.80 L 780.30 480.90 L 783.80 469.40 L 785.90 464.20 L 788.00 460.80 L 790.00 459.30 L 792.20 458.50 L 794.50 458.20 L 796.80 458.60 L 798.90 459.50 L 800.80 461.00 L 802.30 462.90 L 803.10 465.10 L 803.40 467.40 L 803.10 469.70 L 802.20 471.90 L 800.70 473.80 Z" fill="#6c63ff" fill-rule="nonzero" group-id="9" node-id="175" stroke="none" target-height="22.699982" target-width="23.100037" target-x="780.3" target-y="458.2"></path></g><g node-id="565"><path d="M 810.20 515.70 L 806.20 516.60 L 800.60 516.90 L 788.60 516.40 L 795.40 506.40 L 798.90 502.20 L 802.00 499.60 L 804.30 498.80 L 806.60 498.60 L 808.90 499.10 L 811.00 500.10 L 812.80 501.60 L 814.20 503.60 L 815.00 505.90 L 815.10 508.20 L 814.70 510.50 L 813.70 512.60 L 812.20 514.40 L 810.20 515.80 Z" fill="#6c63ff" fill-rule="nonzero" group-id="10" node-id="180" stroke="none" target-height="18.300018" target-width="26.5" target-x="788.6" target-y="498.6"></path></g><g node-id="566"><path d="M 813.80 557.70 L 812.30 558.50 L 807.50 560.00 L 799.00 561.40 L 792.70 562.00 L 797.60 551.10 L 800.40 546.20 L 803.00 543.10 L 805.10 542.00 L 807.40 541.40 L 809.70 541.50 L 812.00 542.10 L 814.00 543.30 L 815.70 545.00 L 816.90 547.20 L 817.40 549.40 L 817.40 551.80 L 816.70 554.00 L 815.50 556.00 L 813.80 557.70 Z" fill="#6c63ff" fill-rule="nonzero" group-id="11" node-id="185" stroke="none" target-height="20.599976" target-width="24.700012" target-x="792.7" target-y="541.4"></path></g><g node-id="567"><path d="M 63.90 514.70 L 66.50 504.20 L 69.90 486.70 L 71.60 475.30 L 72.90 463.40 L 73.80 449.90 L 74.00 440.70 L 73.40 421.40 L 72.40 411.70 L 71.00 401.80 L 69.00 392.00 L 67.10 384.70 L 64.80 377.50 L 62.10 370.40 L 56.10 356.50 L 53.40 349.60 L 49.20 335.50 L 46.50 321.00 L 45.40 306.40 L 45.40 299.00 L 45.90 291.70 L 46.70 284.40 L 48.00 277.00 L 50.30 266.60 L 53.10 256.40 L 56.40 246.40 L 60.20 236.50" fill="none" group-id="12" node-id="190" stroke="#535461" stroke-linecap="butt" stroke-width="2" target-height="278.2" target-width="28.599998" target-x="45.4" target-y="236.5"></path></g><g node-id="568"><path d="M 41.20 195.90 L 41.60 198.80 L 42.70 202.70 L 46.20 211.50 L 50.90 220.70 L 60.60 237.60 L 70.20 220.70 L 74.90 211.40 L 78.50 202.70 L 79.60 198.80 L 79.90 195.90 L 79.60 192.40 L 78.70 189.10 L 77.20 186.10 L 75.30 183.40 L 73.00 181.10 L 70.30 179.20 L 67.30 177.80 L 64.10 176.90 L 60.60 176.60 L 57.00 176.90 L 53.80 177.80 L 50.80 179.20 L 48.10 181.10 L 45.80 183.40 L 43.90 186.10 L 42.40 189.10 L 41.50 192.40 L 41.20 195.90 Z" fill="#6c63ff" fill-rule="nonzero" group-id="13" node-id="195" stroke="none" target-height="61" target-width="38.7" target-x="41.2" target-y="176.6"></path></g><g node-id="569"><path d="M 9.30 255.10 L 11.10 257.30 L 14.10 260.00 L 21.90 265.40 L 30.90 270.70 L 48.10 279.50 L 47.10 260.20 L 46.00 249.80 L 44.20 240.50 L 43.00 236.60 L 41.70 234.10 L 39.50 231.40 L 37.00 229.20 L 34.20 227.50 L 31.10 226.40 L 28.00 225.70 L 24.70 225.60 L 21.50 226.10 L 18.30 227.10 L 15.20 228.70 L 12.50 230.90 L 10.30 233.30 L 8.50 236.10 L 7.30 239.10 L 6.60 242.20 L 6.40 245.50 L 6.80 248.80 L 7.70 251.90 L 9.30 255.10 Z" fill="#6c63ff" fill-rule="nonzero" group-id="14" node-id="200" stroke="none" target-height="53.899994" target-width="41.699997" target-x="6.4" target-y="225.6"></path></g><g node-id="570"><path d="M 10.60 356.20 L 13.30 357.20 L 17.40 358.00 L 26.80 358.70 L 37.20 358.70 L 56.60 357.70 L 45.90 341.50 L 39.70 333.10 L 33.50 326.00 L 30.50 323.30 L 28.10 321.70 L 24.80 320.40 L 21.50 319.70 L 18.20 319.70 L 14.90 320.10 L 11.80 321.20 L 8.80 322.70 L 6.20 324.80 L 4.00 327.20 L 2.10 330.30 L 0.80 333.60 L 0.10 336.80 L 0.00 340.20 L 0.50 343.40 L 1.60 346.50 L 3.10 349.50 L 5.10 352.10 L 7.60 354.30 L 10.60 356.20 Z" fill="#6c63ff" fill-rule="nonzero" group-id="15" node-id="205" stroke="none" target-height="39" target-width="56.6" target-x="0" target-y="319.7"></path></g><g node-id="571"><path d="M 28.90 432.50 L 31.40 433.90 L 35.20 435.40 L 44.40 437.70 L 54.60 439.50 L 73.90 441.70 L 66.10 423.90 L 61.40 414.60 L 56.50 406.60 L 54.00 403.30 L 51.90 401.40 L 48.90 399.50 L 45.70 398.30 L 42.50 397.70 L 39.10 397.60 L 35.90 398.10 L 32.80 399.10 L 29.80 400.70 L 27.20 402.80 L 24.80 405.40 L 23.00 408.50 L 21.80 411.60 L 21.20 414.80 L 21.10 418.20 L 21.60 421.40 L 22.60 424.50 L 24.20 427.50 L 26.20 430.10 L 28.90 432.50 Z" fill="#6c63ff" fill-rule="nonzero" group-id="16" node-id="210" stroke="none" target-height="44.100006" target-width="52.800003" target-x="21.1" target-y="397.6"></path></g><g node-id="572"><path d="M 88.70 281.60 L 86.50 283.30 L 82.90 285.30 L 74.10 288.80 L 64.20 291.90 L 45.40 296.70 L 50.70 278.10 L 54.10 268.20 L 57.90 259.60 L 60.00 256.10 L 61.80 253.80 L 64.50 251.60 L 67.50 250.00 L 70.60 248.90 L 73.90 248.40 L 77.20 248.40 L 80.40 249.00 L 83.60 250.20 L 86.50 251.90 L 89.20 254.20 L 91.40 257.00 L 93.00 259.90 L 94.10 263.00 L 94.60 266.30 L 94.50 269.60 L 93.90 272.90 L 92.80 276.00 L 91.10 278.90 L 88.80 281.60 Z" fill="#6c63ff" fill-rule="nonzero" group-id="17" node-id="215" stroke="none" target-height="48.30002" target-width="49.199997" target-x="45.4" target-y="248.4"></path></g><g node-id="573"><path d="M 109.00 371.10 L 106.30 372.10 L 102.30 372.90 L 92.80 373.60 L 82.50 373.60 L 63.10 372.60 L 73.80 356.40 L 80.00 348.00 L 86.20 340.90 L 89.20 338.20 L 91.60 336.60 L 94.90 335.30 L 98.20 334.60 L 101.50 334.50 L 104.80 335.00 L 107.90 336.00 L 110.80 337.60 L 113.40 339.60 L 115.70 342.10 L 117.60 345.10 L 118.80 348.40 L 119.50 351.70 L 119.60 355.00 L 119.10 358.30 L 118.10 361.40 L 116.50 364.40 L 114.50 367.00 L 112.00 369.20 L 109.00 371.10 Z" fill="#6c63ff" fill-rule="nonzero" group-id="18" node-id="220" stroke="none" target-height="39.100006" target-width="56.5" target-x="63.1" target-y="334.5"></path></g><g node-id="574"><path d="M 116.70 460.70 L 114.20 462.20 L 110.40 463.60 L 101.30 466.00 L 91.00 467.70 L 71.70 470.00 L 79.50 452.20 L 84.20 442.90 L 89.10 434.80 L 91.60 431.60 L 93.70 429.60 L 96.80 427.80 L 99.90 426.60 L 103.20 426.00 L 106.50 425.90 L 109.70 426.40 L 112.90 427.40 L 115.80 429.00 L 118.40 431.00 L 120.80 433.70 L 122.60 436.70 L 123.80 439.80 L 124.50 443.10 L 124.50 446.40 L 124.10 449.70 L 123.00 452.80 L 121.50 455.70 L 119.40 458.40 L 116.70 460.70 Z" fill="#6c63ff" fill-rule="nonzero" group-id="19" node-id="225" stroke="none" target-height="44.100006" target-width="52.800003" target-x="71.7" target-y="425.9"></path></g><g node-id="575"><path d="M 379.20 299.80 L 323.40 292.60 L 320.60 291.80 L 319.70 291.20 L 319.50 290.70 L 319.80 290.20 L 322.10 289.80 L 379.40 298.00 L 381.30 298.50 L 382.00 299.30 L 381.10 299.80 L 379.20 299.80 Z" fill="#6c63ff" fill-rule="nonzero" group-id="20" node-id="230" stroke="none" target-height="10" target-width="62.5" target-x="319.5" target-y="289.8"></path></g><g node-id="576"><path d="M 379.50 300.70 L 323.60 295.00 L 320.60 295.10 L 319.60 295.50 L 319.30 295.90 L 319.50 296.40 L 321.70 297.40 L 379.30 302.60 L 381.30 302.50 L 382.20 302.00 L 381.40 301.20 L 379.50 300.70 Z" fill="#6c63ff" fill-rule="nonzero" group-id="21" node-id="235" stroke="none" target-height="7.600006" target-width="62.900024" target-x="319.3" target-y="295"></path></g><g node-id="577"><path d="M 463.40 342.80 L 519.10 335.60 L 521.90 334.80 L 522.80 334.20 L 523.00 333.70 L 522.70 333.20 L 520.40 332.80 L 463.10 341.00 L 461.20 341.50 L 460.50 342.30 L 461.40 342.80 L 463.40 342.80 Z" fill="#6c63ff" fill-rule="nonzero" group-id="22" node-id="240" stroke="none" target-height="10" target-width="62.5" target-x="460.5" target-y="332.8"></path></g><g node-id="578"><path d="M 463.00 343.70 L 518.90 338.00 L 521.90 338.10 L 522.90 338.50 L 523.20 338.90 L 523.00 339.40 L 520.80 340.40 L 463.20 345.60 L 461.20 345.50 L 460.30 345.00 L 461.10 344.20 L 463.00 343.70 Z" fill="#6c63ff" fill-rule="nonzero" group-id="23" node-id="245" stroke="none" target-height="7.600006" target-width="62.900024" target-x="460.3" target-y="338"></path></g><path d="M 265.40 402.60 L 279.00 402.60 L 279.00 597.50 L 265.40 597.50 Z" fill="#40414d" fill-rule="nonzero" node-id="248" stroke="none" target-height="194.9" target-width="13.600006" target-x="265.4" target-y="402.6"></path><path d="M 562.30 402.60 L 575.90 402.60 L 575.90 597.50 L 562.30 597.50 Z" fill="#40414d" fill-rule="nonzero" node-id="250" stroke="none" target-height="194.9" target-width="13.600037" target-x="562.3" target-y="402.6"></path><path d="M 260.30 386.80 L 574.30 386.80 L 577.30 387.00 L 580.10 387.60 L 585.40 389.80 L 588.40 392.00 L 591.10 394.60 L 593.20 397.70 L 595.50 402.90 L 596.00 405.70 L 596.30 411.70 L 238.30 411.70 L 238.50 405.70 L 239.00 402.90 L 241.30 397.70 L 243.40 394.60 L 246.10 392.00 L 249.10 389.80 L 251.70 388.50 L 257.20 387.00 L 260.30 386.80 Z" fill="#dfe6f5" fill-rule="nonzero" node-id="252" stroke="none" target-height="24.900024" target-width="358" target-x="238.3" target-y="386.8"></path><g node-id="579"><path d="M 259.30 386.80 L 573.30 386.80 L 576.30 387.00 L 579.10 387.60 L 584.40 389.80 L 587.40 392.00 L 590.10 394.60 L 592.20 397.70 L 594.50 402.90 L 595.00 405.70 L 595.30 411.70 L 237.30 411.70 L 237.50 405.70 L 238.00 402.90 L 240.30 397.70 L 242.40 394.60 L 245.10 392.00 L 248.10 389.80 L 250.70 388.50 L 256.20 387.00 L 259.30 386.80 Z" fill="#000000" fill-opacity="0.1" fill-rule="nonzero" group-id="24" node-id="256" stroke="none" target-height="24.900024" target-width="358" target-x="237.3" target-y="386.8"></path></g><path d="M 260.30 382.20 L 574.30 382.20 L 577.30 382.50 L 580.10 383.00 L 585.40 385.20 L 588.40 387.40 L 591.10 390.00 L 593.20 393.10 L 595.50 398.30 L 596.00 401.20 L 596.30 407.20 L 238.30 407.20 L 238.50 401.20 L 239.00 398.30 L 241.30 393.10 L 243.40 390.00 L 246.10 387.40 L 249.10 385.20 L 251.70 384.00 L 257.20 382.50 L 260.30 382.20 Z" fill="#dfe6f5" fill-rule="nonzero" node-id="259" stroke="none" target-height="25" target-width="358" target-x="238.3" target-y="382.2"></path><path d="M 444.40 339.20 L 444.20 342.90 L 443.50 346.40 L 442.30 349.80 L 440.70 352.90 L 438.80 355.80 L 436.50 358.40 L 433.90 360.70 L 431.00 362.70 L 427.80 364.20 L 424.50 365.40 L 421.00 366.10 L 417.30 366.40 L 413.50 366.10 L 410.00 365.40 L 406.70 364.20 L 403.50 362.70 L 400.60 360.70 L 398.00 358.40 L 395.70 355.80 L 393.80 352.90 L 392.20 349.80 L 391.00 346.40 L 390.30 342.90 L 390.10 339.20 L 390.30 335.50 L 391.00 331.90 L 392.20 328.60 L 393.80 325.50 L 395.70 322.60 L 398.00 320.00 L 400.60 317.70 L 403.50 315.70 L 406.70 314.10 L 410.00 313.00 L 413.50 312.30 L 417.30 312.00 L 421.00 312.30 L 424.50 313.00 L 427.80 314.10 L 431.00 315.70 L 433.90 317.70 L 436.50 320.00 L 438.80 322.60 L 440.70 325.50 L 442.30 328.60 L 443.50 331.90 L 444.20 335.50 L 444.40 339.20 Z" fill="#ffd77c" fill-rule="nonzero" node-id="261" stroke="#ffab50" stroke-linecap="butt" stroke-width="1" target-height="54.399994" target-width="54.299988" target-x="390.1" target-y="312"></path><path d="M 438.80 339.20 L 438.60 342.20 L 437.10 347.60 L 435.90 350.10 L 433.70 353.10 L 431.20 355.70 L 428.10 357.80 L 425.60 359.10 L 420.20 360.50 L 417.30 360.70 L 414.30 360.50 L 408.90 359.10 L 406.40 357.80 L 403.30 355.70 L 400.80 353.10 L 398.60 350.10 L 396.50 345.00 L 395.90 342.20 L 395.70 339.20 L 396.50 333.40 L 398.60 328.30 L 400.80 325.30 L 403.30 322.70 L 406.40 320.60 L 408.90 319.30 L 414.30 317.90 L 417.30 317.60 L 420.20 317.90 L 425.60 319.30 L 428.10 320.60 L 431.20 322.70 L 433.70 325.30 L 435.90 328.30 L 437.10 330.80 L 438.60 336.20 L 438.80 339.20 Z" fill="#ffd77c" fill-rule="nonzero" node-id="263" stroke="#ffab50" stroke-linecap="butt" stroke-width="1" target-height="43.100006" target-width="43.099976" target-x="395.7" target-y="317.6"></path><path d="M 433.70 339.20 L 433.40 342.40 L 432.40 345.50 L 430.90 348.30 L 428.90 350.80 L 426.40 352.90 L 423.50 354.40 L 420.50 355.30 L 417.30 355.60 L 414.00 355.30 L 411.00 354.40 L 408.10 352.90 L 405.60 350.80 L 403.60 348.30 L 402.10 345.50 L 401.10 342.40 L 400.80 339.20 L 401.10 336.00 L 402.10 332.90 L 403.60 330.10 L 405.60 327.60 L 408.10 325.50 L 411.00 324.00 L 414.00 323.10 L 417.30 322.80 L 420.50 323.10 L 423.50 324.00 L 426.40 325.50 L 428.90 327.60 L 430.90 330.10 L 432.40 332.90 L 433.40 336.00 L 433.70 339.20 Z" fill="#ffd77c" fill-rule="nonzero" node-id="265" stroke="#ffab50" stroke-linecap="butt" stroke-width="1" target-height="32.80002" target-width="32.900024" target-x="400.8" target-y="322.8"></path><path d="M 426.50 339.20 L 426.30 341.00 L 424.90 344.30 L 422.40 346.90 L 419.10 348.20 L 415.40 348.20 L 412.10 346.90 L 409.60 344.30 L 408.20 341.00 L 408.20 337.40 L 409.60 334.10 L 412.10 331.50 L 415.40 330.10 L 419.10 330.10 L 422.40 331.50 L 424.90 334.10 L 426.30 337.40 L 426.50 339.20 Z" fill="#ffd77c" fill-rule="nonzero" node-id="267" stroke="#ffab50" stroke-linecap="butt" stroke-width="1" target-height="18.100006" target-width="18.299988" target-x="408.2" target-y="330.1"></path><path d="M 428.60 353.90 L 428.30 357.70 L 427.60 361.20 L 426.40 364.50 L 424.90 367.70 L 422.90 370.50 L 420.60 373.10 L 418.00 375.40 L 415.10 377.40 L 412.00 379.00 L 408.60 380.10 L 405.10 380.90 L 401.40 381.10 L 397.70 380.90 L 394.10 380.10 L 390.80 379.00 L 387.70 377.40 L 384.80 375.40 L 382.20 373.10 L 379.90 370.50 L 377.90 367.70 L 376.30 364.50 L 375.20 361.20 L 374.50 357.70 L 374.20 353.90 L 374.50 350.20 L 375.20 346.70 L 376.30 343.30 L 377.90 340.20 L 379.90 337.30 L 382.20 334.70 L 384.80 332.40 L 387.70 330.50 L 390.80 328.90 L 394.10 327.70 L 397.70 327.00 L 401.40 326.70 L 405.10 327.00 L 408.60 327.70 L 412.00 328.90 L 415.10 330.50 L 418.00 332.40 L 420.60 334.70 L 422.90 337.30 L 424.90 340.20 L 426.40 343.30 L 427.60 346.70 L 428.30 350.20 L 428.60 353.90 Z" fill="#ffd77c" fill-rule="nonzero" node-id="269" stroke="#ffab50" stroke-linecap="butt" stroke-width="1" target-height="54.399994" target-width="54.399994" target-x="374.2" target-y="326.7"></path><path d="M 422.90 353.90 L 422.70 356.90 L 421.30 362.30 L 420.00 364.80 L 417.90 367.80 L 415.30 370.40 L 412.30 372.50 L 409.80 373.80 L 404.40 375.30 L 401.40 375.50 L 398.40 375.30 L 393.00 373.80 L 390.50 372.50 L 387.50 370.40 L 384.90 367.80 L 382.80 364.80 L 381.50 362.30 L 380.10 356.90 L 379.80 353.90 L 380.10 350.90 L 381.50 345.50 L 382.80 343.00 L 384.90 340.00 L 387.50 337.50 L 390.50 335.30 L 393.00 334.10 L 398.40 332.60 L 401.40 332.40 L 404.40 332.60 L 409.80 334.10 L 412.30 335.30 L 415.30 337.50 L 417.90 340.00 L 420.00 343.00 L 421.30 345.50 L 422.70 350.90 L 422.90 353.90 Z" fill="#ffd77c" fill-rule="nonzero" node-id="271" stroke="#ffab50" stroke-linecap="butt" stroke-width="1" target-height="43.100006" target-width="43.100006" target-x="379.8" target-y="332.4"></path><path d="M 417.80 353.90 L 417.50 357.10 L 416.60 360.20 L 415.10 363.00 L 413.00 365.50 L 410.50 367.60 L 407.70 369.10 L 404.60 370.00 L 401.40 370.30 L 398.20 370.00 L 395.10 369.10 L 392.30 367.60 L 389.80 365.50 L 387.70 363.00 L 386.20 360.20 L 385.30 357.10 L 385.00 353.90 L 385.30 350.70 L 386.20 347.60 L 387.70 344.80 L 389.80 342.30 L 392.30 340.30 L 395.10 338.70 L 398.20 337.80 L 401.40 337.50 L 404.60 337.80 L 407.70 338.70 L 410.50 340.30 L 413.00 342.30 L 415.10 344.80 L 416.60 347.60 L 417.50 350.70 L 417.80 353.90 Z" fill="#ffd77c" fill-rule="nonzero" node-id="273" stroke="#ffab50" stroke-linecap="butt" stroke-width="1" target-height="32.799988" target-width="32.799988" target-x="385" target-y="337.5"></path><path d="M 410.60 353.90 L 409.90 357.50 L 407.90 360.40 L 404.90 362.40 L 401.40 363.20 L 399.60 363.00 L 396.30 361.60 L 393.70 359.00 L 392.30 355.70 L 392.30 352.10 L 393.70 348.80 L 396.30 346.20 L 399.60 344.90 L 403.20 344.90 L 406.50 346.20 L 409.10 348.80 L 410.40 352.10 L 410.60 353.90 Z" fill="#ffd77c" fill-rule="nonzero" node-id="275" stroke="#ffab50" stroke-linecap="butt" stroke-width="1" target-height="18.300018" target-width="18.300018" target-x="392.3" target-y="344.9"></path><path d="M 460.30 353.90 L 460.00 357.70 L 459.30 361.20 L 458.20 364.50 L 456.60 367.70 L 454.60 370.50 L 452.30 373.10 L 449.70 375.40 L 446.80 377.40 L 443.70 379.00 L 440.40 380.10 L 436.80 380.90 L 433.10 381.10 L 429.40 380.90 L 425.90 380.10 L 422.50 379.00 L 419.40 377.40 L 416.50 375.40 L 413.90 373.10 L 411.60 370.50 L 409.60 367.70 L 408.10 364.50 L 406.90 361.20 L 406.20 357.70 L 405.90 353.90 L 406.20 350.20 L 406.90 346.70 L 408.10 343.30 L 409.60 340.20 L 411.60 337.30 L 413.90 334.70 L 416.50 332.40 L 419.40 330.50 L 422.50 328.90 L 425.90 327.70 L 429.40 327.00 L 433.10 326.70 L 436.80 327.00 L 440.40 327.70 L 443.70 328.90 L 446.80 330.50 L 449.70 332.40 L 452.30 334.70 L 454.60 337.30 L 456.60 340.20 L 458.20 343.30 L 459.30 346.70 L 460.00 350.20 L 460.30 353.90 Z" fill="#ffd77c" fill-rule="nonzero" node-id="277" stroke="#ffab50" stroke-linecap="butt" stroke-width="1" target-height="54.399994" target-width="54.399994" target-x="405.9" target-y="326.7"></path><path d="M 454.70 353.90 L 454.40 356.90 L 453.00 362.30 L 451.70 364.80 L 449.60 367.80 L 447.00 370.40 L 444.00 372.50 L 441.50 373.80 L 436.10 375.30 L 433.10 375.50 L 430.10 375.30 L 424.70 373.80 L 422.20 372.50 L 419.20 370.40 L 416.60 367.80 L 414.50 364.80 L 412.30 359.70 L 411.80 356.90 L 411.60 353.90 L 412.30 348.10 L 414.50 343.00 L 416.60 340.00 L 419.20 337.50 L 422.20 335.30 L 424.70 334.10 L 430.10 332.60 L 433.10 332.40 L 436.10 332.60 L 441.50 334.10 L 444.00 335.30 L 447.00 337.50 L 449.60 340.00 L 451.70 343.00 L 453.00 345.50 L 454.40 350.90 L 454.70 353.90 Z" fill="#ffd77c" fill-rule="nonzero" node-id="279" stroke="#ffab50" stroke-linecap="butt" stroke-width="1" target-height="43.100006" target-width="43.100006" target-x="411.6" target-y="332.4"></path><path d="M 449.50 353.90 L 449.20 357.10 L 448.30 360.20 L 446.80 363.00 L 444.70 365.50 L 442.20 367.60 L 439.40 369.10 L 436.30 370.00 L 433.10 370.30 L 429.90 370.00 L 426.80 369.10 L 424.00 367.60 L 421.50 365.50 L 419.40 363.00 L 417.90 360.20 L 417.00 357.10 L 416.70 353.90 L 417.00 350.70 L 417.90 347.60 L 419.40 344.80 L 421.50 342.30 L 424.00 340.30 L 426.80 338.70 L 429.90 337.80 L 433.10 337.50 L 436.30 337.80 L 439.40 338.70 L 442.20 340.30 L 444.70 342.30 L 446.80 344.80 L 448.30 347.60 L 449.20 350.70 L 449.50 353.90 Z" fill="#ffd77c" fill-rule="nonzero" node-id="281" stroke="#ffab50" stroke-linecap="butt" stroke-width="1" target-height="32.799988" target-width="32.799988" target-x="416.7" target-y="337.5"></path><path d="M 442.30 353.90 L 441.60 357.50 L 439.60 360.40 L 436.60 362.40 L 433.10 363.20 L 431.30 363.00 L 428.00 361.60 L 425.40 359.00 L 424.10 355.70 L 424.10 352.10 L 425.40 348.80 L 428.00 346.20 L 431.30 344.90 L 434.90 344.90 L 438.20 346.20 L 440.80 348.80 L 442.20 352.10 L 442.30 353.90 Z" fill="#ffd77c" fill-rule="nonzero" node-id="283" stroke="#ffab50" stroke-linecap="butt" stroke-width="1" target-height="18.300018" target-width="18.199982" target-x="424.1" target-y="344.9"></path><path d="M 360.60 346.00 L 473.90 346.00 L 473.70 355.50 L 472.10 363.20 L 469.00 370.40 L 464.80 376.80 L 459.30 382.20 L 456.30 384.50 L 449.50 388.20 L 442.00 390.50 L 433.90 391.30 L 396.40 391.10 L 388.70 389.50 L 385.00 388.20 L 378.20 384.50 L 375.20 382.20 L 369.70 376.80 L 365.40 370.40 L 363.70 366.90 L 361.40 359.40 L 360.80 355.50 L 360.60 346.00 Z" fill="#6c63ff" fill-rule="nonzero" node-id="285" stroke="none" target-height="45.299988" target-width="113.29999" target-x="360.6" target-y="346"></path><g node-id="580"><path d="M 463.70 346.00 L 463.30 350.60 L 462.50 355.00 L 461.40 359.20 L 459.80 363.30 L 457.80 367.20 L 455.50 370.80 L 452.90 374.20 L 450.00 377.30 L 446.80 380.10 L 443.40 382.70 L 439.70 384.90 L 435.70 386.70 L 431.70 388.20 L 427.40 389.30 L 423.00 389.90 L 418.40 390.20 L 395.90 390.20 L 400.90 391.00 L 405.90 391.30 L 428.60 391.30 L 433.10 391.10 L 437.50 390.40 L 441.70 389.40 L 445.90 387.90 L 449.90 386.00 L 453.70 383.70 L 457.20 381.10 L 460.60 378.00 L 463.60 374.70 L 466.30 371.10 L 468.50 367.30 L 470.40 363.30 L 471.90 359.20 L 473.00 354.90 L 473.70 350.50 L 473.90 346.00 Z" fill="#000000" fill-opacity="0.1" fill-rule="nonzero" group-id="25" node-id="289" stroke="none" target-height="45.299988" target-width="78" target-x="395.9" target-y="346"></path></g><g node-id="581"><path d="M 569.10 551.10 L 569.10 564.60 L 274.50 564.60 L 274.50 551.10 Z" fill="#40414d" fill-rule="nonzero" group-id="26" node-id="294" stroke="none" target-height="13.5" target-width="294.59998" target-x="274.5" target-y="551.1"></path></g><path d="M 152.20 503.60 L 164.10 503.60 L 164.10 611.80 L 152.20 611.80 Z" fill="#40414d" fill-rule="nonzero" node-id="297" stroke="none" target-height="108.19998" target-width="11.900009" target-x="152.2" target-y="503.6"></path><path d="M 246.10 503.60 L 258.00 503.60 L 258.00 611.80 L 246.10 611.80 Z" fill="#40414d" fill-rule="nonzero" node-id="299" stroke="none" target-height="108.19998" target-width="11.899994" target-x="246.1" target-y="503.6"></path><g node-id="582"><path d="M 267.50 485.80 L 267.20 487.00 L 266.50 488.20 L 265.30 489.50 L 263.20 490.80 L 256.50 493.60 L 251.50 495.00 L 243.70 496.60 L 234.10 497.80 L 224.00 498.60 L 212.80 498.80 L 201.60 498.60 L 191.70 497.80 L 185.20 497.00 L 174.70 495.00 L 169.90 493.60 L 163.40 490.90 L 161.50 489.50 L 160.20 488.20 L 159.60 487.00 L 159.30 485.80 L 159.60 484.50 L 160.20 483.30 L 161.50 482.00 L 163.40 480.70 L 169.90 477.90 L 174.70 476.50 L 185.20 474.50 L 191.70 473.70 L 201.60 473.00 L 212.80 472.70 L 224.00 473.00 L 234.10 473.70 L 243.70 475.00 L 251.50 476.50 L 256.50 477.90 L 263.20 480.70 L 265.30 482.10 L 266.50 483.30 L 267.20 484.60 L 267.50 485.80 Z" fill="#f6c6cd" fill-rule="nonzero" group-id="27" node-id="303" stroke="none" target-height="26.099976" target-width="108.2" target-x="159.3" target-y="472.7"></path></g><path d="M 142.70 485.80 L 267.50 485.80 L 267.50 496.70 L 267.30 498.60 L 266.00 501.90 L 265.00 503.40 L 262.30 505.70 L 258.90 507.00 L 257.00 507.20 L 160.70 507.20 L 157.40 506.80 L 154.40 506.00 L 151.60 504.70 L 149.00 502.90 L 146.90 500.80 L 145.10 498.20 L 143.80 495.40 L 143.00 492.40 L 142.70 485.80 Z" fill="#40414d" fill-rule="nonzero" node-id="306" stroke="none" target-height="21.400024" target-width="124.8" target-x="142.7" target-y="485.8"></path><g node-id="583"><path d="M 121.50 360.70 L 125.90 359.90 L 127.70 360.20 L 129.30 361.00 L 130.70 362.10 L 131.70 363.60 L 132.40 365.40 L 163.60 503.50 L 157.40 504.70 L 155.20 504.60 L 151.10 503.20 L 147.60 500.70 L 146.30 498.90 L 144.50 494.80 L 116.20 369.00 L 116.10 366.30 L 117.10 363.80 L 119.00 361.80 L 121.50 360.70 Z" fill="#40414d" fill-rule="nonzero" group-id="28" node-id="310" stroke="none" target-height="144.80002" target-width="47.500008" target-x="116.1" target-y="359.9"></path></g><g node-id="584"><path d="M 684.30 613.70 L 672.40 613.70 L 672.40 505.50 L 684.30 505.50 Z" fill="#40414d" fill-rule="nonzero" group-id="29" node-id="315" stroke="none" target-height="108.20001" target-width="11.899963" target-x="672.4" target-y="505.5"></path></g><g node-id="585"><path d="M 590.40 613.70 L 578.50 613.70 L 578.50 505.50 L 590.40 505.50 Z" fill="#40414d" fill-rule="nonzero" group-id="30" node-id="320" stroke="none" target-height="108.20001" target-width="11.900024" target-x="578.5" target-y="505.5"></path></g><g node-id="586"><path d="M 569.00 487.70 L 569.30 488.90 L 570.00 490.10 L 571.20 491.40 L 573.30 492.80 L 580.10 495.60 L 585.00 496.90 L 592.80 498.50 L 602.40 499.70 L 612.50 500.50 L 623.70 500.80 L 634.90 500.50 L 644.80 499.70 L 651.30 498.90 L 661.80 496.90 L 666.60 495.60 L 673.10 492.80 L 675.00 491.40 L 676.30 490.10 L 677.00 488.90 L 677.20 487.70 L 677.00 486.50 L 676.30 485.20 L 675.00 483.90 L 673.10 482.60 L 666.60 479.80 L 661.80 478.40 L 651.30 476.40 L 644.80 475.60 L 634.90 474.80 L 623.70 474.60 L 612.50 474.80 L 602.40 475.60 L 592.80 476.90 L 585.00 478.40 L 580.10 479.80 L 573.30 482.60 L 571.30 484.00 L 570.00 485.30 L 569.30 486.50 L 569.00 487.70 Z" fill="#f6c6cd" fill-rule="nonzero" group-id="31" node-id="325" stroke="none" target-height="26.199982" target-width="108.20001" target-x="569" target-y="474.6"></path></g><g node-id="587"><path d="M 675.80 509.10 L 577.60 508.90 L 575.80 508.40 L 572.70 506.60 L 570.40 503.90 L 569.70 502.30 L 569.00 498.60 L 569.00 487.70 L 693.80 487.70 L 693.50 494.40 L 692.70 497.40 L 691.40 500.20 L 689.60 502.70 L 687.40 504.80 L 684.90 506.60 L 682.10 508.00 L 679.10 508.80 L 675.80 509.10 Z" fill="#40414d" fill-rule="nonzero" group-id="32" node-id="330" stroke="none" target-height="21.399994" target-width="124.79999" target-x="569" target-y="487.7"></path></g><g node-id="588"><path d="M 676.80 506.30 L 672.90 505.40 L 704.10 367.30 L 704.80 365.50 L 705.80 364.00 L 707.20 362.90 L 708.80 362.10 L 710.60 361.80 L 712.50 362.00 L 716.80 363.20 L 718.30 364.30 L 719.40 365.70 L 720.20 367.30 L 720.50 369.10 L 720.30 370.90 L 691.90 496.70 L 690.20 500.90 L 687.20 504.00 L 683.40 506.00 L 681.30 506.50 L 676.80 506.30 Z" fill="#40414d" fill-rule="nonzero" group-id="33" node-id="335" stroke="none" target-height="144.70001" target-width="47.599976" target-x="672.9" target-y="361.8"></path></g><g node-id="589"><path d="M 681.10 445.60 L 684.60 444.50 L 682.50 428.10 L 680.70 410.70 L 679.20 390.20 L 678.60 368.50 L 679.00 350.70 L 678.90 343.80 L 677.80 332.30 L 676.80 327.00 L 674.50 318.50 L 672.40 312.90 L 668.50 305.40 L 659.50 293.20 L 653.30 285.80 L 646.50 278.80 L 643.00 276.00 L 640.20 274.30 L 638.90 270.10 L 637.50 264.50 L 644.20 259.20 L 649.80 254.30 L 654.50 249.40 L 656.40 246.70 L 658.70 241.90 L 659.10 239.90 L 659.10 235.90 L 658.50 233.10 L 657.30 230.50 L 655.70 228.00 L 650.10 220.50 L 647.00 215.30 L 645.90 212.20 L 643.70 199.30 L 642.80 196.20 L 641.70 194.00 L 640.00 191.80 L 638.10 189.90 L 635.80 188.30 L 633.40 187.20 L 630.90 186.60 L 627.60 186.90 L 624.40 188.60 L 620.40 192.50 L 616.90 194.60 L 611.60 195.90 L 608.20 196.00 L 604.80 195.70 L 601.50 195.00 L 599.30 194.10 L 591.90 188.20 L 589.70 186.90 L 586.30 185.90 L 584.10 185.80 L 586.40 186.80 L 584.10 186.60 L 585.90 187.40 L 588.80 189.80 L 590.60 193.10 L 590.90 195.80 L 589.00 196.50 L 587.00 196.90 L 576.00 196.70 L 571.90 198.00 L 569.80 200.10 L 569.40 201.10 L 569.30 203.40 L 570.70 205.90 L 573.50 209.50 L 573.90 210.80 L 567.80 213.60 L 561.50 215.70 L 554.90 217.30 L 548.10 218.50 L 548.60 219.20 L 548.10 219.40 L 548.70 220.20 L 551.10 222.50 L 559.40 229.00 L 567.00 231.80 L 575.30 234.50 L 573.90 238.60 L 573.00 242.70 L 572.70 247.00 L 573.00 250.80 L 573.60 254.50 L 574.70 258.00 L 576.10 261.30 L 578.00 264.50 L 582.60 270.10 L 588.40 274.60 L 595.10 277.90 L 598.80 279.00 L 607.20 289.40 L 603.50 295.00 L 598.60 304.90 L 596.00 311.70 L 593.10 321.60 L 591.00 333.40 L 590.50 339.70 L 590.50 353.00 L 591.00 359.40 L 580.60 358.40 L 574.30 357.30 L 567.10 355.70 L 559.90 353.60 L 552.40 350.70 L 547.50 348.40 L 542.70 345.70 L 533.00 339.30 L 528.10 336.60 L 523.30 334.50 L 518.40 332.90 L 513.80 331.80 L 505.40 330.90 L 501.80 331.10 L 498.70 331.70 L 495.80 332.60 L 493.70 333.80 L 492.30 335.20 L 491.60 336.40 L 491.30 337.70 L 491.40 339.10 L 492.00 340.80 L 493.40 342.80 L 495.30 344.90 L 497.80 347.00 L 502.10 349.80 L 507.00 352.40 L 517.20 356.80 L 526.10 359.90 L 534.40 362.00 L 530.20 363.10 L 527.40 364.30 L 525.80 365.40 L 525.10 366.50 L 524.90 367.60 L 526.10 369.80 L 527.80 371.60 L 535.00 377.00 L 539.60 379.80 L 550.10 385.00 L 559.00 388.00 L 562.30 388.70 L 575.70 390.40 L 586.50 392.70 L 596.60 395.40 L 596.70 402.80 L 596.30 408.20 L 595.70 413.10 L 594.00 419.30 L 592.50 422.10 L 596.50 424.30 L 595.40 427.30 L 585.50 432.40 L 580.10 434.50 L 568.50 437.50 L 555.80 441.70 L 549.70 444.40 L 515.90 460.70 L 513.00 462.40 L 510.40 464.50 L 508.30 467.00 L 506.60 469.80 L 505.40 472.80 L 504.70 476.10 L 504.50 478.40 L 505.10 483.50 L 505.90 486.00 L 507.10 488.60 L 508.90 491.20 L 511.00 493.60 L 513.80 496.10 L 517.40 498.60 L 517.90 501.30 L 519.00 504.30 L 520.80 507.50 L 523.10 510.50 L 526.20 513.50 L 555.00 534.20 L 600.30 568.10 L 600.00 575.70 L 599.50 580.00 L 598.50 584.40 L 596.40 589.70 L 595.00 592.00 L 593.30 593.90 L 591.20 595.30 L 586.30 597.20 L 584.60 598.20 L 583.50 599.20 L 582.90 600.60 L 582.70 601.90 L 583.40 604.70 L 585.60 607.50 L 587.90 609.30 L 592.70 611.40 L 596.90 611.80 L 599.50 612.50 L 602.10 612.70 L 604.80 612.40 L 617.60 608.30 L 629.50 603.30 L 635.70 600.20 L 641.60 596.70 L 647.10 592.80 L 650.50 590.00 L 655.90 584.10 L 658.00 580.80 L 659.40 577.40 L 660.20 574.00 L 660.30 568.40 L 659.00 563.20 L 657.70 560.80 L 658.80 563.80 L 655.90 559.00 L 650.80 554.10 L 643.90 549.80 L 640.60 548.10 L 637.80 547.10 L 637.60 545.30 L 572.80 500.70 L 581.20 494.80 L 590.50 489.50 L 596.10 486.90 L 602.30 484.50 L 611.10 482.10 L 620.50 480.70 L 625.20 480.70 L 640.50 482.00 L 647.70 482.30 L 654.00 482.00 L 657.90 481.50 L 662.70 480.10 L 665.50 477.70 L 669.20 473.30 L 673.90 466.60 L 676.10 462.60 L 679.10 455.10 L 680.30 448.70 L 681.30 448.50 L 681.10 445.60 Z" fill="url(#a8b3c97d-e0d9-42bd-b729-a4d45980fc6b)" fill-rule="nonzero" group-id="34" node-id="340" stroke="none" target-height="426.90002" target-width="193.29999" target-x="491.3" target-y="185.8"></path></g><g node-id="590"><path d="M 601.90 561.90 L 602.10 569.60 L 601.60 576.90 L 600.90 580.80 L 599.00 587.00 L 596.70 591.00 L 595.10 592.60 L 593.40 593.80 L 588.80 595.60 L 587.10 596.60 L 586.20 597.80 L 585.60 599.20 L 585.50 600.70 L 585.90 602.20 L 587.70 605.10 L 589.20 606.50 L 591.70 608.20 L 594.60 609.40 L 596.70 609.90 L 601.00 609.60 L 608.40 607.40 L 618.60 603.30 L 624.30 600.70 L 630.10 597.60 L 635.70 594.10 L 640.80 590.30 L 644.00 587.50 L 649.10 581.60 L 651.10 578.40 L 652.40 575.10 L 653.20 571.60 L 653.30 568.10 L 652.90 565.00 L 652.10 562.20 L 649.30 557.10 L 647.50 554.90 L 644.30 552.00 L 640.90 549.50 L 637.30 547.50 L 634.10 546.00 L 626.60 543.30 Z" fill="#b8616e" fill-rule="nonzero" group-id="35" node-id="345" stroke="none" target-height="66.60004" target-width="67.79999" target-x="585.5" target-y="543.3"></path></g><g node-id="591"><path d="M 601.90 561.90 L 602.10 569.60 L 601.60 576.90 L 600.90 580.80 L 599.00 587.00 L 596.70 591.00 L 595.10 592.60 L 593.40 593.80 L 588.80 595.60 L 587.10 596.60 L 586.20 597.80 L 585.60 599.20 L 585.50 600.70 L 585.90 602.20 L 587.70 605.10 L 589.20 606.50 L 591.70 608.20 L 594.60 609.40 L 596.70 609.90 L 601.00 609.60 L 608.40 607.40 L 618.60 603.30 L 624.30 600.70 L 630.10 597.60 L 635.70 594.10 L 640.80 590.30 L 644.00 587.50 L 649.10 581.60 L 651.10 578.40 L 652.40 575.10 L 653.20 571.60 L 653.30 568.10 L 652.90 565.00 L 652.10 562.20 L 649.30 557.10 L 647.50 554.90 L 644.30 552.00 L 640.90 549.50 L 637.30 547.50 L 634.10 546.00 L 626.60 543.30 Z" fill="#000000" fill-opacity="0.05" fill-rule="nonzero" group-id="36" node-id="350" stroke="none" target-height="66.60004" target-width="67.79999" target-x="585.5" target-y="543.3"></path></g><g node-id="592"><path d="M 607.20 562.80 L 607.40 570.50 L 606.90 577.80 L 606.20 581.70 L 604.40 587.90 L 602.00 591.90 L 600.50 593.50 L 598.70 594.70 L 594.10 596.50 L 592.50 597.50 L 591.50 598.70 L 591.00 600.10 L 590.90 601.50 L 591.30 603.10 L 593.10 606.00 L 594.50 607.40 L 597.00 609.10 L 600.00 610.30 L 602.10 610.80 L 606.30 610.50 L 613.70 608.20 L 624.00 604.20 L 629.60 601.50 L 635.40 598.50 L 641.00 595.00 L 646.10 591.20 L 649.30 588.40 L 654.40 582.50 L 656.40 579.30 L 657.70 575.90 L 658.50 572.50 L 658.60 569.00 L 658.30 565.90 L 657.40 563.10 L 654.60 558.00 L 652.80 555.80 L 649.60 552.80 L 646.20 550.40 L 642.70 548.40 L 639.40 546.80 L 632.00 544.20 Z" fill="#b8616e" fill-rule="nonzero" group-id="37" node-id="355" stroke="none" target-height="66.599976" target-width="67.69995" target-x="590.9" target-y="544.2"></path></g><g node-id="593"><path d="M 634.60 545.10 L 609.90 563.70 L 610.10 567.00 L 616.70 564.90 L 624.60 561.90 L 632.10 557.90 L 635.30 555.40 L 637.70 552.90 L 639.00 551.00 L 639.70 549.00 L 640.10 547.00 L 634.60 545.10 Z" fill="#000000" fill-opacity="0.1" fill-rule="nonzero" group-id="38" node-id="360" stroke="none" target-height="21.900024" target-width="30.199951" target-x="609.9" target-y="545.1"></path></g><path d="M 608.50 291.00 L 619.10 291.00 L 619.10 298.90 L 608.50 298.90 Z" fill="#f8bdc5" fill-rule="nonzero" node-id="363" stroke="none" target-height="7.899994" target-width="10.599976" target-x="608.5" target-y="291"></path><g node-id="594"><path d="M 609.00 419.60 L 602.20 424.40 L 595.10 428.80 L 586.80 433.00 L 582.50 434.70 L 566.20 439.40 L 560.30 441.60 L 554.60 444.30 L 522.70 460.40 L 519.90 462.20 L 517.50 464.20 L 515.50 466.70 L 513.90 469.50 L 512.80 472.40 L 512.20 475.70 L 512.10 479.10 L 512.60 482.80 L 514.30 487.80 L 517.80 492.70 L 520.30 495.10 L 523.50 497.50 L 526.90 499.50 L 531.20 501.60 L 536.50 503.60 L 604.60 560.10 L 625.80 542.50 L 553.30 486.80 L 609.00 452.30 Z" fill="#758ac8" fill-rule="nonzero" group-id="39" node-id="367" stroke="none" target-height="140.49997" target-width="113.70001" target-x="512.1" target-y="419.6"></path></g><g node-id="595"><path d="M 609.00 419.60 L 602.20 424.40 L 595.10 428.80 L 586.80 433.00 L 582.50 434.70 L 566.20 439.40 L 560.30 441.60 L 554.60 444.30 L 522.70 460.40 L 519.90 462.20 L 517.50 464.20 L 515.50 466.70 L 513.90 469.50 L 512.80 472.40 L 512.20 475.70 L 512.10 479.10 L 512.60 482.80 L 514.30 487.80 L 517.80 492.70 L 520.30 495.10 L 523.50 497.50 L 526.90 499.50 L 531.20 501.60 L 536.50 503.60 L 604.60 560.10 L 625.80 542.50 L 553.30 486.80 L 609.00 452.30 Z" fill="#000000" fill-opacity="0.1" fill-rule="nonzero" group-id="40" node-id="372" stroke="none" target-height="140.49997" target-width="113.70001" target-x="512.1" target-y="419.6"></path></g><g node-id="596"><path d="M 599.30 360.40 L 591.90 360.10 L 580.20 358.60 L 573.10 357.10 L 563.30 354.10 L 553.20 349.70 L 548.30 346.90 L 538.80 340.20 L 534.20 337.60 L 529.70 335.60 L 525.10 333.90 L 520.80 332.80 L 512.90 332.00 L 506.60 332.70 L 503.80 333.70 L 501.90 334.80 L 500.50 336.20 L 499.80 337.40 L 499.50 338.70 L 499.70 340.10 L 500.20 341.80 L 501.50 343.80 L 505.70 347.90 L 509.70 350.60 L 514.30 353.30 L 523.90 357.60 L 532.30 360.70 L 537.40 362.10 L 605.40 380.70 Z" fill="#f8bdc5" fill-rule="nonzero" group-id="41" node-id="377" stroke="none" target-height="48.700012" target-width="105.900024" target-x="499.5" target-y="332"></path></g><g node-id="597"><path d="M 599.30 360.40 L 591.90 360.10 L 580.20 358.60 L 573.10 357.10 L 563.30 354.10 L 553.20 349.70 L 548.30 346.90 L 538.80 340.20 L 534.20 337.60 L 529.70 335.60 L 525.10 333.90 L 520.80 332.80 L 512.90 332.00 L 506.60 332.70 L 503.80 333.70 L 501.90 334.80 L 500.50 336.20 L 499.80 337.40 L 499.50 338.70 L 499.70 340.10 L 500.20 341.80 L 501.50 343.80 L 505.70 347.90 L 509.70 350.60 L 514.30 353.30 L 523.90 357.60 L 532.30 360.70 L 537.40 362.10 L 605.40 380.70 Z" fill="#000000" fill-opacity="0.05" fill-rule="nonzero" group-id="42" node-id="382" stroke="none" target-height="48.700012" target-width="105.900024" target-x="499.5" target-y="332"></path></g><g node-id="598"><path d="M 602.80 411.60 L 592.20 443.50 L 555.10 466.60 L 542.60 474.60 L 529.20 483.80 L 526.60 486.40 L 525.40 488.50 L 524.60 490.90 L 524.00 496.10 L 524.70 500.80 L 526.70 505.70 L 530.40 510.80 L 533.10 513.30 L 557.40 531.50 L 602.80 567.20 L 616.50 563.20 L 625.50 559.20 L 629.50 556.90 L 632.00 555.00 L 635.60 551.10 L 636.80 549.00 L 637.30 546.70 L 637.30 544.20 L 576.30 500.00 L 584.20 494.20 L 593.00 489.00 L 598.20 486.40 L 604.00 484.00 L 612.30 481.60 L 621.10 480.30 L 625.60 480.20 L 639.90 481.60 L 646.70 481.80 L 652.70 481.50 L 656.40 481.00 L 660.90 479.60 L 663.60 477.10 L 667.30 472.60 L 671.80 465.70 L 673.80 461.60 L 675.70 457.10 L 677.20 450.70 L 677.60 447.40 L 677.60 444.10 L 677.10 440.70 L 676.20 437.30 L 675.20 435.20 L 672.10 431.30 L 669.90 429.50 L 662.90 425.30 L 658.50 423.30 L 651.70 420.80 L 636.80 416.80 L 622.30 414.10 L 602.80 411.60 Z" fill="#758ac8" fill-rule="nonzero" group-id="43" node-id="387" stroke="none" target-height="155.6" target-width="153.59998" target-x="524" target-y="411.6"></path></g><g node-id="599"><path d="M 589.50 267.60 L 597.30 276.40 L 604.30 285.10 L 611.30 294.70 L 614.20 299.40 L 616.30 303.50 L 617.40 306.20 L 617.90 308.40 L 617.80 311.20 L 618.10 311.60 L 618.60 311.50 L 621.80 308.60 L 626.50 302.90 L 641.70 281.70 L 639.30 274.70 L 636.70 263.40 L 635.30 251.50 L 635.50 241.00 Z" fill="#f8bdc5" fill-rule="nonzero" group-id="44" node-id="392" stroke="none" target-height="70.600006" target-width="52.200012" target-x="589.5" target-y="241"></path></g><g node-id="600"><path d="M 615.80 297.60 L 626.60 287.50 L 635.50 278.30 L 637.60 277.80 L 638.90 278.20 L 642.70 280.40 L 644.90 282.30 L 648.20 285.50 L 654.70 293.20 L 665.30 307.50 L 668.70 313.60 L 670.60 318.00 L 673.70 328.40 L 675.60 339.30 L 676.10 345.20 L 676.30 351.90 L 675.70 379.30 L 676.00 399.40 L 676.60 418.20 L 678.40 448.30 L 669.50 450.80 L 666.00 451.30 L 662.60 451.40 L 659.00 451.10 L 655.60 450.40 L 652.30 449.30 L 649.00 447.80 L 638.40 441.20 L 630.50 437.30 L 626.60 436.10 L 618.20 434.90 L 613.60 433.80 L 605.60 431.00 L 597.90 427.10 L 599.20 420.90 L 599.70 414.70 L 599.70 407.50 L 599.10 396.90 L 598.20 389.40 L 593.60 361.80 L 593.00 354.80 L 592.80 348.20 L 593.60 335.60 L 594.50 329.90 L 596.30 321.80 L 598.40 314.80 L 603.00 303.40 L 606.90 296.10 L 608.50 293.60 L 609.40 296.30 L 611.10 298.80 L 612.30 299.30 L 613.20 299.30 L 615.80 297.60 Z" fill="#000000" fill-opacity="0.1" fill-rule="nonzero" group-id="45" node-id="397" stroke="none" target-height="173.6" target-width="85.60004" target-x="592.8" target-y="277.8"></path></g><g node-id="601"><path d="M 681.50 444.30 L 673.00 447.20 L 669.50 448.10 L 666.00 448.60 L 662.50 448.70 L 659.00 448.40 L 655.60 447.70 L 652.20 446.70 L 649.00 445.20 L 638.40 438.50 L 630.50 434.70 L 626.60 433.40 L 618.10 432.10 L 613.10 430.80 L 604.00 427.20 L 594.90 422.20 L 596.50 418.80 L 597.40 415.40 L 598.20 411.30 L 598.70 405.20 L 598.80 398.50 L 597.60 382.90 L 593.70 359.10 L 593.00 352.20 L 592.80 345.60 L 593.60 332.90 L 594.50 327.30 L 596.30 319.10 L 598.40 312.20 L 600.80 305.70 L 605.30 296.30 L 608.60 291.00 L 609.40 293.70 L 611.20 296.10 L 612.40 296.60 L 614.40 296.10 L 626.70 284.90 L 634.70 276.40 L 635.50 275.60 L 637.60 275.20 L 640.70 276.40 L 642.70 277.80 L 648.20 282.90 L 654.80 290.50 L 662.10 300.40 L 665.30 304.80 L 668.70 310.90 L 670.60 315.30 L 673.70 325.70 L 675.60 336.60 L 676.10 342.50 L 676.40 349.20 L 675.90 369.10 L 676.10 379.90 L 677.10 401.20 L 679.50 428.10 L 681.50 444.30 Z" fill="#5e52ad" fill-rule="nonzero" group-id="46" node-id="402" stroke="none" target-height="173.5" target-width="88.70001" target-x="592.8" target-y="275.2"></path></g><g node-id="602"><path d="M 631.10 357.70 L 632.00 377.20 L 619.50 377.50 L 607.30 377.30 L 594.40 376.20 L 588.20 375.30 L 583.00 374.00 L 579.70 372.80 L 577.20 371.50 L 573.80 368.60 L 582.40 377.40 L 597.90 392.20 L 604.90 398.10 L 608.00 400.10 L 609.90 401.00 L 613.00 401.80 L 627.40 404.00 L 637.90 404.90 L 647.00 405.40 L 649.90 405.20 L 652.70 404.50 L 655.20 403.20 L 657.50 401.50 L 659.40 399.40 L 661.00 396.90 L 661.90 394.20 L 662.20 391.50 L 661.40 380.50 L 661.30 370.90 L 662.10 352.40 Z" fill="#000000" fill-opacity="0.1" fill-rule="nonzero" group-id="47" node-id="407" stroke="none" target-height="53" target-width="88.400024" target-x="573.8" target-y="352.4"></path></g><g node-id="603"><path d="M 631.10 355.90 L 632.00 375.40 L 619.50 375.70 L 607.30 375.50 L 594.40 374.50 L 588.20 373.50 L 583.00 372.20 L 579.70 371.00 L 577.20 369.70 L 573.60 366.90 L 568.70 364.40 L 564.40 363.20 L 559.50 362.30 L 554.40 361.90 L 544.50 362.10 L 540.20 362.80 L 536.30 363.80 L 533.50 365.00 L 532.10 366.10 L 531.40 367.20 L 531.20 368.30 L 531.50 369.20 L 534.00 372.30 L 536.80 374.70 L 545.00 380.40 L 554.90 385.50 L 563.20 388.50 L 566.30 389.20 L 574.60 390.10 L 586.20 392.40 L 609.90 399.30 L 617.40 400.80 L 627.40 402.20 L 637.90 403.20 L 647.00 403.60 L 649.90 403.40 L 652.70 402.70 L 655.20 401.40 L 657.50 399.70 L 659.40 397.60 L 661.00 395.10 L 661.90 392.40 L 662.20 389.70 L 661.40 378.70 L 661.30 369.10 L 662.10 350.60 Z" fill="#f8bdc5" fill-rule="nonzero" group-id="48" node-id="412" stroke="none" target-height="53" target-width="131" target-x="531.2" target-y="350.6"></path></g><g node-id="604"><path d="M 641.70 299.40 L 637.50 300.70 L 634.70 302.20 L 631.00 305.30 L 629.10 307.60 L 627.50 310.10 L 626.10 313.20 L 624.80 317.10 L 624.10 321.10 L 623.80 326.10 L 624.00 332.10 L 626.10 349.90 L 628.10 359.70 L 629.00 362.60 L 630.20 364.80 L 653.50 362.50 L 663.80 361.20 L 664.70 360.10 L 665.20 358.40 L 665.80 352.10 L 666.00 344.10 L 665.60 327.60 L 664.50 320.10 L 662.30 313.20 L 660.50 309.60 L 658.10 306.30 L 656.20 304.30 L 654.00 302.60 L 651.40 301.10 L 648.70 300.10 L 645.50 299.50 L 641.70 299.40 Z" fill="#000000" fill-opacity="0.1" fill-rule="nonzero" group-id="49" node-id="417" stroke="none" target-height="65.399994" target-width="42.200012" target-x="623.8" target-y="299.4"></path></g><g node-id="605"><path d="M 641.70 298.50 L 637.50 299.80 L 634.70 301.30 L 631.00 304.40 L 629.10 306.70 L 627.50 309.20 L 626.10 312.30 L 624.80 316.20 L 624.10 320.20 L 623.80 325.20 L 624.00 331.20 L 626.10 349.00 L 628.10 358.80 L 629.00 361.70 L 630.20 363.90 L 653.50 361.70 L 663.80 360.40 L 664.70 359.20 L 665.20 357.60 L 665.80 351.20 L 666.00 343.20 L 665.60 326.80 L 664.50 319.20 L 662.30 312.30 L 660.50 308.70 L 658.10 305.40 L 656.20 303.40 L 654.00 301.70 L 651.40 300.30 L 648.70 299.20 L 645.50 298.60 L 641.70 298.50 Z" fill="#5e52ad" fill-rule="nonzero" group-id="50" node-id="422" stroke="none" target-height="65.399994" target-width="42.200012" target-x="623.8" target-y="298.5"></path></g><g node-id="606"><path d="M 634.20 260.00 L 633.80 255.50 L 636.00 245.10 L 636.40 241.90 L 590.40 268.40 L 601.70 281.50 L 605.70 282.30 L 609.80 282.50 L 612.80 282.30 L 615.50 281.50 L 617.90 280.40 L 622.40 277.00 L 627.10 271.40 L 634.20 260.00 Z" fill="#000000" fill-opacity="0.1" fill-rule="nonzero" group-id="51" node-id="427" stroke="none" target-height="40.600006" target-width="46" target-x="590.4" target-y="241.9"></path></g><path d="M 641.70 249.00 L 641.40 253.30 L 640.60 257.40 L 639.20 261.50 L 637.30 265.30 L 635.00 268.80 L 632.10 272.10 L 628.80 274.90 L 625.30 277.30 L 621.50 279.20 L 617.50 280.60 L 613.30 281.40 L 609.00 281.70 L 604.70 281.40 L 600.50 280.60 L 596.50 279.20 L 592.60 277.30 L 589.10 274.90 L 585.90 272.10 L 583.00 268.80 L 580.60 265.30 L 578.80 261.50 L 577.40 257.40 L 576.60 253.30 L 576.30 249.00 L 576.60 244.60 L 577.40 240.50 L 578.80 236.40 L 580.60 232.60 L 583.00 229.10 L 585.90 225.80 L 589.10 223.00 L 592.60 220.60 L 596.50 218.70 L 600.50 217.40 L 604.70 216.50 L 609.00 216.30 L 613.30 216.50 L 617.50 217.40 L 621.50 218.70 L 625.30 220.60 L 628.80 223.00 L 632.10 225.80 L 635.00 229.10 L 637.30 232.60 L 639.20 236.40 L 640.60 240.50 L 641.40 244.60 L 641.70 249.00 Z" fill="#f8bdc5" fill-rule="nonzero" node-id="430" stroke="none" target-height="65.40001" target-width="65.400024" target-x="576.3" target-y="216.3"></path><g node-id="607"><path d="M 617.20 239.00 L 615.70 240.30 L 614.60 241.70 L 613.30 245.10 L 613.30 248.90 L 614.00 251.70 L 615.40 254.40 L 619.30 258.80 L 621.60 260.80 L 629.50 265.80 L 633.20 267.30 L 634.50 267.40 L 636.40 266.70 L 643.50 261.00 L 651.10 253.70 L 655.30 248.20 L 657.30 243.20 L 657.50 238.90 L 656.90 236.10 L 654.40 231.00 L 649.10 223.60 L 646.20 218.40 L 644.50 212.20 L 643.10 202.70 L 642.20 199.60 L 641.10 197.30 L 639.60 195.20 L 637.70 193.30 L 635.60 191.80 L 633.30 190.70 L 629.40 190.10 L 626.30 191.00 L 624.90 192.00 L 621.10 195.90 L 617.80 198.00 L 612.80 199.30 L 609.70 199.40 L 606.50 199.10 L 603.30 198.40 L 601.20 197.50 L 594.30 191.70 L 592.20 190.40 L 589.00 189.40 L 586.90 189.20 L 588.90 190.20 L 590.60 191.60 L 592.00 193.20 L 592.90 195.10 L 593.40 197.10 L 593.40 199.10 L 591.60 199.90 L 589.60 200.20 L 579.30 200.00 L 577.20 200.60 L 575.40 201.50 L 573.30 203.60 L 573.10 205.80 L 573.60 207.20 L 576.70 211.20 L 577.30 212.60 L 577.40 214.10 L 571.60 216.70 L 565.70 218.90 L 559.50 220.50 L 553.10 221.70 L 555.90 224.80 L 563.70 231.10 L 570.80 234.00 L 584.70 238.50 L 591.20 239.90 L 597.70 240.70 L 602.60 240.90 L 607.40 240.70 L 612.30 240.10 L 617.20 239.00 Z" fill="#000000" fill-opacity="0.1" fill-rule="nonzero" group-id="52" node-id="434" stroke="none" target-height="78.2" target-width="104.400024" target-x="553.1" target-y="189.2"></path></g><g node-id="608"><path d="M 617.20 238.10 L 614.60 240.80 L 613.30 244.20 L 613.30 248.00 L 614.00 250.80 L 615.40 253.50 L 619.30 258.00 L 621.60 259.90 L 629.50 264.90 L 633.20 266.40 L 634.50 266.50 L 636.40 265.80 L 643.50 260.10 L 651.10 252.80 L 655.30 247.30 L 657.30 242.30 L 657.50 238.00 L 656.90 235.20 L 654.40 230.10 L 649.10 222.70 L 646.20 217.50 L 644.50 211.30 L 643.10 201.80 L 642.20 198.70 L 641.10 196.40 L 639.60 194.30 L 637.70 192.40 L 635.60 190.90 L 633.30 189.80 L 631.00 189.20 L 629.40 189.20 L 626.30 190.10 L 624.90 191.10 L 621.10 195.00 L 617.80 197.10 L 612.80 198.40 L 609.70 198.50 L 606.50 198.20 L 603.30 197.50 L 601.20 196.60 L 594.30 190.80 L 592.20 189.50 L 589.00 188.50 L 586.90 188.30 L 588.90 189.30 L 590.60 190.70 L 592.00 192.30 L 592.90 194.20 L 593.40 196.20 L 593.40 198.20 L 591.60 199.00 L 589.60 199.30 L 579.30 199.20 L 577.20 199.70 L 575.40 200.60 L 573.30 202.70 L 573.10 204.90 L 573.60 206.40 L 576.70 210.40 L 577.30 211.70 L 577.40 213.20 L 571.60 215.90 L 565.70 218.00 L 559.50 219.60 L 553.10 220.80 L 555.90 223.90 L 563.70 230.20 L 570.80 233.10 L 584.70 237.60 L 591.20 239.00 L 597.70 239.80 L 602.60 240.00 L 607.40 239.80 L 612.30 239.20 L 617.20 238.10 Z" fill="#916168" fill-rule="nonzero" group-id="53" node-id="439" stroke="none" target-height="78.2" target-width="104.400024" target-x="553.1" target-y="188.3"></path></g><g node-id="609"><path d="M 656.20 559.50 L 657.30 562.90 L 657.80 566.30 L 657.60 569.90 L 656.80 573.30 L 655.50 576.60 L 653.60 579.90 L 648.50 585.80 L 645.30 588.60 L 640.10 592.40 L 634.50 595.80 L 623.10 601.60 L 612.80 605.60 L 605.40 607.90 L 601.70 608.20 L 597.20 607.00 L 594.80 605.60 L 592.70 603.90 L 591.20 602.10 L 593.00 605.00 L 594.40 606.40 L 597.90 608.60 L 602.00 609.90 L 606.30 609.60 L 613.70 607.40 L 624.00 603.30 L 635.40 597.60 L 641.00 594.10 L 646.20 590.30 L 649.40 587.50 L 654.50 581.60 L 656.40 578.40 L 657.70 575.10 L 658.50 571.60 L 658.70 568.50 L 658.30 565.40 L 657.50 562.30 L 656.20 559.50 Z" fill="#ffffff" fill-opacity="0.1" fill-rule="nonzero" group-id="54" node-id="444" stroke="none" target-height="50.400024" target-width="67.5" target-x="591.2" target-y="559.5"></path></g><g node-id="610"><path d="M 375.20 583.60 L 373.80 582.00 L 372.50 581.20 L 367.10 579.40 L 357.60 578.00 L 346.10 577.10 L 342.60 576.30 L 339.80 575.10 L 337.20 573.50 L 335.30 571.70 L 333.70 569.70 L 331.70 565.20 L 331.20 562.90 L 336.90 561.90 L 340.20 560.40 L 339.30 551.80 L 338.90 544.20 L 339.50 535.50 L 340.90 526.90 L 341.00 522.60 L 340.40 511.20 L 338.90 498.80 L 335.10 475.70 L 334.30 450.90 L 333.90 447.80 L 333.00 444.90 L 331.60 442.20 L 329.80 439.70 L 327.60 437.70 L 324.90 436.00 L 320.70 434.60 L 275.80 428.60 L 259.00 426.80 L 255.20 424.60 L 253.20 423.90 L 247.10 422.80 L 239.20 422.70 L 233.80 423.30 L 224.50 396.10 L 224.30 395.10 L 224.70 393.30 L 226.40 390.10 L 229.50 387.80 L 234.20 386.50 L 237.70 386.10 L 240.00 388.10 L 241.10 386.10 L 313.80 385.70 L 332.30 386.20 L 343.30 384.70 L 352.80 382.80 L 369.20 379.10 L 372.30 378.10 L 374.40 375.20 L 374.40 373.40 L 373.70 372.40 L 372.40 371.50 L 370.20 370.70 L 366.60 370.00 L 361.90 369.50 L 351.60 369.50 L 324.80 371.30 L 315.10 371.10 L 289.80 369.40 L 291.90 365.60 L 294.20 360.40 L 298.30 348.20 L 301.90 334.90 L 307.20 310.50 L 315.10 306.00 L 322.00 301.30 L 325.30 298.60 L 329.70 293.90 L 331.40 290.30 L 331.60 288.60 L 331.10 287.00 L 329.90 285.30 L 327.30 283.80 L 323.90 283.70 L 321.60 284.20 L 316.10 286.50 L 312.00 289.00 L 303.80 295.20 L 292.70 305.50 L 286.40 323.40 L 279.20 342.10 L 276.20 348.80 L 275.00 350.70 L 272.80 352.70 L 271.60 353.20 L 269.30 353.20 L 271.00 351.80 L 259.40 341.90 L 253.50 336.30 L 248.70 331.00 L 247.00 328.50 L 244.70 323.30 L 243.70 318.60 L 242.20 314.10 L 240.80 311.30 L 239.10 308.70 L 235.80 305.30 L 230.50 301.50 L 232.80 292.20 L 237.00 291.40 L 240.90 290.20 L 244.60 288.60 L 248.10 286.50 L 251.30 284.10 L 254.10 281.30 L 256.60 278.20 L 258.80 274.80 L 260.50 271.20 L 261.70 267.40 L 262.50 263.40 L 262.80 259.20 L 262.60 255.30 L 261.90 251.60 L 264.50 251.50 L 266.90 251.00 L 269.20 250.10 L 271.40 248.90 L 273.20 247.30 L 274.90 245.30 L 276.30 242.60 L 277.20 239.70 L 277.50 236.70 L 277.20 233.70 L 276.50 230.70 L 275.30 227.90 L 273.30 224.80 L 270.80 222.20 L 267.60 219.40 L 264.10 217.20 L 260.30 215.60 L 255.00 213.90 L 252.50 212.80 L 250.30 211.40 L 245.10 203.90 L 240.30 199.30 L 237.40 197.20 L 230.80 194.00 L 223.70 192.00 L 214.90 190.90 L 203.70 191.10 L 197.00 191.50 L 193.60 191.90 L 190.50 193.00 L 189.20 193.90 L 188.30 195.20 L 187.80 196.90 L 187.70 202.40 L 187.30 204.90 L 186.30 207.10 L 184.80 209.00 L 183.00 210.80 L 178.50 213.60 L 174.60 215.20 L 162.80 218.30 L 158.90 219.60 L 155.50 221.30 L 153.40 222.80 L 151.60 224.50 L 150.20 226.60 L 149.30 228.70 L 148.50 233.10 L 148.50 236.50 L 150.70 251.50 L 150.80 256.10 L 150.40 260.50 L 149.70 265.00 L 148.50 269.30 L 147.00 273.50 L 145.00 277.60 L 142.70 281.60 L 134.60 292.90 L 132.30 296.90 L 131.00 300.10 L 130.10 303.30 L 129.50 310.00 L 129.70 313.40 L 131.30 321.20 L 131.20 322.70 L 130.30 325.00 L 125.60 330.70 L 122.10 334.00 L 118.30 337.00 L 114.20 339.60 L 109.90 341.80 L 105.50 343.60 L 100.80 345.00 L 96.10 346.00 L 91.20 346.60 L 92.00 348.50 L 93.10 350.30 L 96.80 353.70 L 101.80 356.70 L 108.90 359.90 L 116.20 362.70 L 127.50 365.70 L 131.50 366.30 L 135.40 366.50 L 139.30 366.20 L 141.90 365.60 L 146.60 363.30 L 148.70 361.70 L 150.40 359.80 L 151.70 357.60 L 154.20 349.10 L 155.50 346.40 L 157.30 344.00 L 165.50 335.20 L 164.50 347.40 L 163.90 359.70 L 163.70 387.60 L 163.00 397.00 L 161.00 406.40 L 159.30 411.60 L 153.30 425.30 L 152.90 427.30 L 152.80 431.10 L 153.20 432.70 L 153.90 434.20 L 155.10 435.50 L 154.40 440.70 L 154.20 446.00 L 154.40 450.80 L 155.20 456.00 L 156.10 459.40 L 157.40 462.70 L 159.10 466.00 L 161.20 469.10 L 163.90 471.90 L 167.30 474.50 L 169.90 476.20 L 176.80 478.80 L 181.00 479.90 L 221.30 477.90 L 244.90 474.10 L 265.80 472.20 L 279.10 472.00 L 284.80 472.50 L 291.40 473.90 L 294.90 475.30 L 296.00 476.00 L 297.60 477.90 L 298.20 480.50 L 297.40 486.90 L 297.60 500.90 L 299.10 525.00 L 300.90 546.50 L 300.90 562.80 L 298.30 567.20 L 296.20 572.10 L 295.60 574.50 L 295.60 576.90 L 296.00 578.60 L 296.70 579.70 L 298.70 581.50 L 302.00 583.90 L 305.80 586.10 L 315.20 590.70 L 325.00 594.50 L 329.30 595.80 L 333.30 596.70 L 336.00 596.90 L 353.30 596.20 L 358.60 595.50 L 366.70 593.60 L 369.40 592.40 L 373.10 589.70 L 374.90 586.60 L 375.40 584.20 L 375.20 583.60 Z" fill="url(#b66fe85f-ad74-4eee-9789-144feaee2a7f)" fill-rule="nonzero" group-id="55" node-id="449" stroke="none" target-height="406.00003" target-width="284.2" target-x="91.2" target-y="190.9"></path></g><g node-id="611"><path d="M 301.80 558.30 L 297.80 563.90 L 295.10 569.30 L 294.00 572.10 L 293.60 574.80 L 293.60 576.50 L 294.00 578.00 L 294.80 579.30 L 296.60 581.00 L 303.50 585.60 L 308.00 588.00 L 317.40 592.20 L 326.20 595.20 L 330.10 596.10 L 339.90 596.10 L 349.50 595.60 L 354.60 594.90 L 362.50 593.00 L 365.10 591.80 L 368.60 589.20 L 370.40 586.10 L 370.80 584.30 L 370.50 583.00 L 368.70 581.20 L 363.70 579.30 L 354.10 577.70 L 342.50 576.80 L 339.10 576.00 L 336.40 574.80 L 333.90 573.30 L 332.00 571.50 L 330.50 569.50 L 329.40 567.40 L 328.00 562.90 L 327.60 556.30 L 328.70 549.30 Z" fill="#594c76" fill-rule="nonzero" group-id="56" node-id="454" stroke="none" target-height="46.799988" target-width="77.19998" target-x="293.6" target-y="549.3"></path></g><g node-id="612"><path d="M 158.70 432.30 L 157.20 440.50 L 156.90 448.90 L 157.20 453.60 L 158.20 458.40 L 159.20 461.60 L 162.20 467.70 L 164.30 470.40 L 166.90 473.00 L 170.10 475.40 L 173.50 477.30 L 177.70 479.00 L 182.70 480.30 L 221.70 478.30 L 233.00 476.30 L 251.10 473.80 L 264.80 472.60 L 271.30 472.30 L 277.70 472.40 L 286.70 473.50 L 292.70 475.50 L 294.50 476.80 L 295.30 477.80 L 296.00 479.50 L 296.20 481.40 L 295.40 486.30 L 295.30 490.20 L 295.50 500.00 L 296.90 524.40 L 298.80 546.30 L 298.80 564.30 L 316.30 563.80 L 329.30 562.50 L 335.40 561.10 L 336.80 560.30 L 335.60 550.60 L 335.50 541.30 L 335.90 536.20 L 337.30 527.70 L 337.20 517.40 L 335.40 499.40 L 331.80 477.30 L 331.00 452.60 L 330.60 449.50 L 329.80 446.60 L 328.40 443.90 L 326.70 441.50 L 324.50 439.50 L 321.90 437.80 L 317.90 436.40 L 269.40 429.90 L 252.10 428.10 L 236.30 427.10 L 223.80 427.20 L 158.70 432.30 Z" fill="#000000" fill-opacity="0.1" fill-rule="nonzero" group-id="57" node-id="459" stroke="none" target-height="137.19998" target-width="180.4" target-x="156.9" target-y="427.1"></path></g><g node-id="613"><path d="M 158.70 431.30 L 157.20 439.50 L 156.90 447.90 L 157.20 452.60 L 158.20 457.40 L 159.20 460.60 L 162.20 466.70 L 164.30 469.40 L 166.90 472.00 L 170.10 474.40 L 173.50 476.30 L 177.70 478.00 L 182.70 479.30 L 221.70 477.30 L 233.00 475.30 L 251.10 472.80 L 264.80 471.60 L 271.30 471.30 L 277.70 471.40 L 286.70 472.50 L 292.70 474.50 L 294.50 475.80 L 295.30 476.80 L 296.00 478.50 L 296.20 480.40 L 295.40 485.30 L 295.30 489.20 L 295.50 499.00 L 296.90 523.40 L 298.80 545.30 L 298.80 563.30 L 316.30 562.80 L 329.30 561.50 L 335.40 560.10 L 336.80 559.30 L 335.60 549.60 L 335.50 540.30 L 335.90 535.20 L 337.30 526.70 L 337.20 516.40 L 335.40 498.40 L 331.80 476.30 L 331.00 451.60 L 330.60 448.50 L 329.80 445.60 L 328.40 442.90 L 326.70 440.50 L 324.50 438.50 L 321.90 436.80 L 317.90 435.40 L 269.40 428.90 L 252.10 427.10 L 236.30 426.10 L 223.80 426.20 L 158.70 431.30 Z" fill="#8b9cd1" fill-rule="nonzero" group-id="58" node-id="464" stroke="none" target-height="137.19998" target-width="180.4" target-x="156.9" target-y="426.1"></path></g><g node-id="614"><path d="M 261.80 350.30 L 264.90 353.10 L 268.00 354.60 L 270.30 354.60 L 271.50 354.10 L 273.60 352.10 L 274.80 350.30 L 277.70 343.60 L 281.10 334.70 L 290.80 307.30 L 292.80 305.10 L 298.10 300.10 L 305.40 293.90 L 313.40 288.40 L 316.20 287.00 L 321.00 285.60 L 323.20 285.60 L 325.10 286.10 L 326.80 287.30 L 327.90 288.90 L 328.40 290.50 L 328.20 292.20 L 326.60 295.80 L 325.00 297.70 L 322.30 300.40 L 315.70 305.60 L 304.80 312.20 L 299.60 336.30 L 296.20 349.40 L 292.30 361.50 L 290.10 366.80 L 288.10 370.50 L 286.40 372.60 L 285.00 373.80 L 283.80 374.30 L 275.60 374.70 L 258.80 374.30 L 253.70 363.30 Z" fill="#f8bdc5" fill-rule="nonzero" group-id="59" node-id="469" stroke="none" target-height="89.100006" target-width="74.7" target-x="253.7" target-y="285.6"></path></g><g node-id="615"><path d="M 261.80 350.30 L 264.90 353.10 L 268.00 354.60 L 270.30 354.60 L 271.50 354.10 L 273.60 352.10 L 274.80 350.30 L 277.70 343.60 L 281.10 334.70 L 290.80 307.30 L 292.80 305.10 L 298.10 300.10 L 305.40 293.90 L 313.40 288.40 L 316.20 287.00 L 321.00 285.60 L 323.20 285.60 L 325.10 286.10 L 326.80 287.30 L 327.90 288.90 L 328.40 290.50 L 328.20 292.20 L 326.60 295.80 L 325.00 297.70 L 322.30 300.40 L 315.70 305.60 L 304.80 312.20 L 299.60 336.30 L 296.20 349.40 L 292.30 361.50 L 290.10 366.80 L 288.10 370.50 L 286.40 372.60 L 285.00 373.80 L 283.80 374.30 L 275.60 374.70 L 258.80 374.30 L 253.70 363.30 Z" fill="#000000" fill-opacity="0.05" fill-rule="nonzero" group-id="60" node-id="474" stroke="none" target-height="89.100006" target-width="74.7" target-x="253.7" target-y="285.6"></path></g><g node-id="616"><path d="M 225.70 300.30 L 232.20 308.10 L 240.60 319.20 L 244.80 326.00 L 246.80 330.40 L 249.00 333.50 L 255.10 340.10 L 261.90 346.50 L 269.80 353.30 L 262.10 360.00 L 258.20 364.80 L 256.50 368.60 L 256.40 370.00 L 256.90 372.20 L 252.60 368.70 L 235.70 351.30 L 207.70 310.30 Z" fill="#eb6475" fill-rule="nonzero" group-id="61" node-id="479" stroke="none" target-height="71.900024" target-width="62.09999" target-x="207.7" target-y="300.3"></path></g><g node-id="617"><path d="M 225.70 300.30 L 232.20 308.10 L 240.60 319.20 L 244.80 326.00 L 246.80 330.40 L 249.00 333.50 L 255.10 340.10 L 261.90 346.50 L 269.80 353.30 L 262.10 360.00 L 258.20 364.80 L 256.50 368.60 L 256.40 370.00 L 256.90 372.20 L 252.60 368.70 L 235.70 351.30 L 207.70 310.30 Z" fill="#000000" fill-opacity="0.1" fill-rule="nonzero" group-id="62" node-id="484" stroke="none" target-height="71.900024" target-width="62.09999" target-x="207.7" target-y="300.3"></path></g><g node-id="618"><path d="M 237.70 276.30 L 234.60 287.20 L 230.70 302.80 L 229.00 312.70 L 228.50 317.50 L 227.20 319.30 L 224.10 320.20 L 221.80 320.30 L 214.60 319.40 L 205.20 316.50 L 196.90 312.60 L 194.10 310.80 L 192.60 309.30 L 191.90 308.20 L 191.70 307.30 L 192.50 305.30 L 194.40 302.00 L 209.60 281.00 L 213.50 274.30 L 215.10 268.90 L 215.80 268.10 L 216.80 267.60 L 218.70 267.40 L 223.80 268.70 L 232.00 272.70 L 237.70 276.30 Z" fill="#f8bdc5" fill-rule="nonzero" group-id="63" node-id="489" stroke="none" target-height="52.899994" target-width="46" target-x="191.7" target-y="267.4"></path></g><g node-id="619"><path d="M 207.70 296.20 L 203.70 295.70 L 197.40 295.90 L 191.00 297.50 L 185.60 300.30 L 183.00 302.20 L 180.40 304.60 L 177.90 307.60 L 175.60 310.90 L 173.50 314.90 L 171.50 319.90 L 170.00 324.90 L 168.70 331.00 L 167.70 338.30 L 166.70 350.50 L 166.00 369.40 L 166.00 389.80 L 165.20 401.00 L 164.10 406.50 L 162.40 412.50 L 160.10 418.70 L 156.70 426.30 L 155.80 428.90 L 155.40 431.10 L 155.60 433.00 L 156.30 434.60 L 157.40 435.90 L 160.90 438.30 L 163.60 439.30 L 171.40 440.70 L 176.50 441.10 L 184.30 441.10 L 202.10 439.90 L 229.00 436.10 L 258.80 430.30 L 256.00 428.30 L 253.40 427.10 L 250.20 426.20 L 242.50 425.50 L 233.80 426.30 L 224.70 399.30 L 224.60 396.70 L 224.80 395.00 L 225.40 393.30 L 226.50 391.50 L 228.90 389.40 L 232.80 387.90 L 240.80 387.00 L 242.60 386.50 L 245.30 384.70 L 246.70 382.90 L 247.80 380.70 L 248.60 378.20 L 249.40 374.10 L 249.60 369.80 L 249.20 361.30 L 247.70 352.30 L 242.60 336.90 L 239.60 329.10 L 236.50 322.70 L 234.90 320.40 L 230.30 315.90 L 223.40 307.40 L 217.70 301.50 L 212.40 297.80 L 207.70 296.20 Z" fill="#000000" fill-opacity="0.1" fill-rule="nonzero" group-id="64" node-id="494" stroke="none" target-height="145.4" target-width="103.399994" target-x="155.4" target-y="295.7"></path></g><g node-id="620"><path d="M 207.70 294.30 L 203.70 293.70 L 197.40 293.90 L 191.00 295.50 L 185.60 298.30 L 183.00 300.20 L 180.40 302.60 L 177.90 305.60 L 175.60 308.90 L 173.50 312.90 L 171.50 317.90 L 170.00 322.90 L 168.70 329.00 L 167.70 336.30 L 166.70 348.50 L 166.00 367.40 L 166.00 387.80 L 165.20 399.00 L 164.10 404.50 L 162.40 410.50 L 160.10 416.70 L 156.70 424.30 L 155.80 426.90 L 155.40 429.10 L 155.60 431.00 L 156.30 432.60 L 157.40 433.90 L 160.90 436.30 L 163.60 437.30 L 171.40 438.70 L 176.50 439.10 L 184.30 439.10 L 202.10 437.90 L 229.00 434.10 L 258.80 428.30 L 256.00 426.30 L 253.40 425.10 L 250.20 424.20 L 242.50 423.50 L 233.80 424.30 L 224.70 397.30 L 224.60 394.70 L 224.80 393.00 L 225.40 391.30 L 226.50 389.50 L 228.90 387.40 L 232.80 385.90 L 240.80 385.00 L 242.60 384.50 L 245.30 382.70 L 246.70 380.90 L 247.80 378.70 L 248.60 376.20 L 249.40 372.10 L 249.60 367.80 L 249.20 359.30 L 247.70 350.30 L 242.60 334.90 L 239.60 327.10 L 236.50 320.70 L 234.90 318.40 L 230.30 313.90 L 223.40 305.40 L 217.70 299.50 L 212.40 295.80 L 207.70 294.30 Z" fill="#eb6475" fill-rule="nonzero" group-id="65" node-id="499" stroke="none" target-height="145.4" target-width="103.399994" target-x="155.4" target-y="293.7"></path></g><g node-id="621"><path d="M 242.70 366.30 L 289.30 370.70 L 305.70 371.90 L 319.30 372.50 L 324.70 372.50 L 338.10 371.30 L 347.80 370.70 L 357.70 370.80 L 362.30 371.20 L 365.80 371.90 L 367.90 372.70 L 369.10 373.60 L 369.80 374.60 L 369.80 376.40 L 367.80 379.30 L 364.70 380.30 L 348.90 384.00 L 339.70 385.80 L 329.10 387.30 L 322.80 387.00 L 297.80 386.80 L 238.70 387.30 L 237.70 377.30 Z" fill="#f8bdc5" fill-rule="nonzero" group-id="66" node-id="504" stroke="none" target-height="21" target-width="132.09999" target-x="237.7" target-y="366.3"></path></g><g node-id="622"><path d="M 186.70 341.30 L 239.70 389.30 L 246.90 376.30 L 250.20 371.30 L 251.80 369.70 L 252.90 369.10 L 252.80 368.50 L 248.40 360.00 L 242.70 350.60 L 216.70 310.30 L 212.80 306.40 L 209.00 303.80 L 206.80 302.90 L 204.70 302.60 L 202.00 303.30 L 199.10 305.50 L 189.90 310.10 L 186.50 313.30 L 184.60 317.40 L 183.80 322.90 L 184.30 330.60 L 186.70 341.30 Z" fill="#000000" fill-opacity="0.1" fill-rule="nonzero" group-id="67" node-id="509" stroke="none" target-height="86.69998" target-width="69.09999" target-x="183.8" target-y="302.6"></path></g><g node-id="623"><path d="M 185.70 339.30 L 238.70 387.30 L 245.90 374.30 L 249.20 369.30 L 250.80 367.70 L 251.90 367.10 L 251.80 366.50 L 247.40 358.00 L 241.70 348.60 L 215.70 308.30 L 211.80 304.40 L 208.00 301.80 L 205.80 300.90 L 203.70 300.60 L 201.00 301.30 L 198.10 303.50 L 188.90 308.10 L 185.50 311.30 L 183.60 315.40 L 182.80 320.90 L 183.30 328.60 L 185.70 339.30 Z" fill="#eb6475" fill-rule="nonzero" group-id="68" node-id="514" stroke="none" target-height="86.69998" target-width="69.09999" target-x="182.8" target-y="300.6"></path></g><path d="M 261.80 261.30 L 261.40 265.80 L 260.60 270.10 L 259.20 274.10 L 257.20 277.90 L 254.90 281.40 L 252.10 284.60 L 248.90 287.40 L 245.40 289.70 L 241.60 291.70 L 237.60 293.10 L 233.30 293.90 L 228.80 294.30 L 224.20 293.90 L 219.90 293.10 L 215.90 291.70 L 212.10 289.70 L 208.60 287.40 L 205.40 284.60 L 202.60 281.40 L 200.30 277.90 L 198.30 274.10 L 196.90 270.10 L 196.10 265.80 L 195.70 261.30 L 196.10 256.70 L 196.90 252.40 L 198.30 248.40 L 200.30 244.60 L 202.60 241.10 L 205.40 237.90 L 208.60 235.10 L 212.10 232.80 L 215.90 230.80 L 219.90 229.40 L 224.20 228.60 L 228.80 228.30 L 233.30 228.60 L 237.60 229.40 L 241.60 230.80 L 245.40 232.80 L 248.90 235.10 L 252.10 237.90 L 254.90 241.10 L 257.20 244.60 L 259.20 248.40 L 260.60 252.40 L 261.40 256.70 L 261.80 261.30 Z" fill="#f8bdc5" fill-rule="nonzero" node-id="517" stroke="none" target-height="65.999985" target-width="66.09999" target-x="195.7" target-y="228.3"></path><g node-id="624"><path d="M 257.70 253.00 L 261.50 253.70 L 263.50 253.60 L 266.40 252.90 L 269.10 251.60 L 272.20 249.10 L 273.40 247.50 L 274.80 244.80 L 275.60 242.00 L 275.90 239.00 L 275.70 236.00 L 275.00 233.00 L 273.80 230.30 L 272.20 227.70 L 270.30 225.40 L 268.10 223.40 L 263.00 220.20 L 252.50 216.20 L 250.30 214.60 L 249.20 213.30 L 244.70 206.60 L 240.70 202.60 L 237.10 200.20 L 233.20 198.20 L 229.20 196.70 L 225.00 195.60 L 220.70 195.00 L 212.10 194.50 L 199.10 195.20 L 195.80 195.60 L 192.80 196.70 L 191.60 197.60 L 190.60 198.80 L 190.10 200.50 L 190.10 206.00 L 189.70 208.50 L 188.70 210.60 L 187.30 212.60 L 185.50 214.30 L 181.10 217.10 L 177.40 218.60 L 166.00 221.80 L 162.30 223.10 L 159.00 224.80 L 157.00 226.30 L 155.30 228.00 L 153.90 230.10 L 153.00 232.20 L 152.20 236.50 L 152.30 239.90 L 154.40 254.80 L 154.10 263.70 L 153.40 268.10 L 152.30 272.40 L 148.90 280.60 L 146.70 284.60 L 138.80 295.80 L 136.60 299.80 L 135.40 302.90 L 134.50 306.10 L 133.80 312.80 L 134.10 316.10 L 135.50 322.40 L 135.60 325.30 L 134.70 327.60 L 130.20 333.30 L 126.80 336.60 L 123.10 339.50 L 119.20 342.10 L 115.00 344.30 L 110.70 346.10 L 106.20 347.50 L 101.60 348.50 L 96.80 349.10 L 97.60 351.10 L 100.40 354.40 L 106.10 358.10 L 112.90 361.30 L 120.00 364.00 L 127.30 366.20 L 134.80 367.60 L 138.60 367.80 L 142.40 367.50 L 144.90 366.90 L 149.50 364.70 L 151.50 363.10 L 153.10 361.20 L 154.40 359.00 L 156.80 350.50 L 158.30 347.60 L 160.30 345.00 L 167.10 337.60 L 172.60 329.00 L 173.90 325.40 L 175.60 316.20 L 176.70 313.20 L 178.00 310.40 L 179.90 307.90 L 182.20 305.80 L 184.10 304.60 L 188.20 303.30 L 191.40 303.10 L 194.80 303.50 L 198.10 304.30 L 204.10 306.80 L 211.20 308.90 L 213.40 310.00 L 222.70 317.30 L 229.80 322.20 L 237.30 326.70 L 245.10 330.60 L 243.70 321.70 L 242.50 317.40 L 240.90 313.50 L 239.40 311.00 L 237.60 308.90 L 230.90 303.60 L 229.80 302.10 L 229.30 300.20 L 230.10 292.10 L 229.70 290.20 L 228.80 288.50 L 227.40 287.00 L 222.50 283.10 L 221.20 281.60 L 220.10 278.40 L 220.10 276.70 L 220.50 274.10 L 221.60 271.70 L 223.10 269.60 L 224.90 267.70 L 228.90 264.40 L 239.60 256.50 L 242.50 253.60 L 244.30 249.80 L 245.50 248.30 L 246.90 247.70 L 248.40 247.80 L 250.00 248.30 L 257.70 253.00 Z" fill="#000000" fill-opacity="0.1" fill-rule="nonzero" group-id="69" node-id="521" stroke="none" target-height="173.29999" target-width="179.09999" target-x="96.8" target-y="194.5"></path></g><g node-id="625"><path d="M 256.70 252.00 L 260.50 252.70 L 262.50 252.60 L 265.40 251.90 L 268.10 250.60 L 271.20 248.10 L 272.40 246.50 L 273.80 243.80 L 274.60 241.00 L 274.90 238.00 L 274.70 235.00 L 274.00 232.00 L 272.80 229.30 L 271.20 226.70 L 269.30 224.40 L 267.10 222.40 L 262.00 219.20 L 251.50 215.20 L 249.30 213.60 L 248.20 212.30 L 243.70 205.60 L 239.70 201.60 L 236.10 199.20 L 232.20 197.20 L 228.20 195.70 L 224.00 194.60 L 219.70 194.00 L 211.10 193.50 L 198.10 194.20 L 194.80 194.60 L 191.80 195.70 L 190.60 196.60 L 189.60 197.80 L 189.10 199.50 L 189.10 205.00 L 188.70 207.50 L 187.70 209.60 L 186.30 211.60 L 184.50 213.30 L 180.10 216.10 L 176.40 217.60 L 165.00 220.80 L 161.30 222.10 L 158.00 223.80 L 156.00 225.30 L 154.30 227.00 L 152.90 229.10 L 152.00 231.20 L 151.20 235.50 L 151.30 238.90 L 153.40 253.80 L 153.10 262.70 L 152.40 267.10 L 151.30 271.40 L 147.90 279.60 L 145.70 283.60 L 137.80 294.80 L 135.60 298.80 L 134.40 301.90 L 133.50 305.10 L 132.80 311.80 L 133.10 315.10 L 134.50 321.40 L 134.60 324.30 L 133.70 326.60 L 129.20 332.30 L 125.80 335.60 L 122.10 338.50 L 118.20 341.10 L 114.00 343.30 L 109.70 345.10 L 105.20 346.50 L 100.60 347.50 L 95.80 348.10 L 96.60 350.10 L 99.40 353.40 L 105.10 357.10 L 111.90 360.30 L 119.00 363.00 L 126.30 365.20 L 133.80 366.60 L 137.60 366.80 L 141.40 366.50 L 143.90 365.90 L 148.50 363.70 L 150.50 362.10 L 152.10 360.20 L 153.40 358.00 L 155.80 349.50 L 157.30 346.60 L 159.30 344.00 L 166.10 336.60 L 171.60 328.00 L 172.90 324.40 L 174.60 315.20 L 175.70 312.20 L 177.00 309.40 L 178.90 306.90 L 181.20 304.80 L 183.10 303.60 L 187.20 302.30 L 190.40 302.10 L 193.80 302.50 L 197.10 303.30 L 203.10 305.80 L 210.20 307.90 L 212.40 309.00 L 221.70 316.30 L 228.80 321.20 L 236.30 325.70 L 244.10 329.60 L 242.70 320.70 L 241.50 316.40 L 239.90 312.50 L 238.40 310.00 L 236.60 307.90 L 229.90 302.60 L 228.80 301.10 L 228.30 299.20 L 229.10 291.10 L 228.70 289.20 L 227.80 287.50 L 226.40 286.00 L 221.50 282.10 L 220.20 280.60 L 219.10 277.40 L 219.10 275.70 L 219.50 273.10 L 220.60 270.70 L 222.10 268.60 L 223.90 266.70 L 227.90 263.40 L 238.60 255.50 L 241.50 252.60 L 243.30 248.80 L 244.50 247.30 L 245.90 246.70 L 247.40 246.80 L 249.00 247.30 L 256.70 252.00 Z" fill="#916168" fill-rule="nonzero" group-id="70" node-id="526" stroke="none" target-height="173.29999" target-width="179.09999" target-x="95.8" target-y="193.5"></path></g><g node-id="626"><g node-id="627"><path d="M 327.60 557.10 L 328.00 553.20 L 328.70 549.30 L 328.20 549.40 L 327.70 553.30 L 327.60 557.10 Z" fill="#ffffff" fill-opacity="0.1" fill-rule="nonzero" group-id="71,72" node-id="533" stroke="none" target-height="7.799988" target-width="1.1000061" target-x="327.6" target-y="549.3"></path></g><path d="M 332.80 594.30 L 330.10 594.10 L 322.10 592.00 L 317.40 590.20 L 308.00 586.00 L 299.90 581.40 L 296.60 579.00 L 294.80 577.30 L 294.00 575.90 L 293.60 574.40 L 293.70 576.90 L 294.80 579.30 L 296.60 581.00 L 303.50 585.60 L 308.00 588.00 L 317.40 592.20 L 326.20 595.20 L 330.10 596.10 L 339.90 596.10 L 349.50 595.60 L 354.60 594.90 L 362.50 593.00 L 365.10 591.80 L 368.60 589.20 L 370.40 586.10 L 370.80 584.30 L 370.60 583.20 L 369.80 585.40 L 368.50 587.30 L 366.60 588.90 L 361.70 591.20 L 354.00 593.00 L 349.00 593.60 L 332.80 594.30 Z" fill="#ffffff" fill-opacity="0.1" fill-rule="nonzero" group-id="71,73" node-id="538" stroke="none" target-height="21.699951" target-width="77.19998" target-x="293.6" target-y="574.4"></path></g><path d="M 372.30 295.80 L 373.30 295.80 L 373.30 336.80 L 372.30 336.80 Z" fill="#ffd77c" fill-rule="nonzero" node-id="542" stroke="#ffab50" stroke-linecap="butt" stroke-width="0.25" target-height="41" target-width="1" target-x="372.3" target-y="295.8"></path><path d="M 373.30 295.80 L 374.30 295.80 L 374.30 336.80 L 373.30 336.80 Z" fill="#ffd77c" fill-rule="nonzero" node-id="544" stroke="#ffab50" stroke-linecap="butt" stroke-width="0.25" target-height="41" target-width="1" target-x="373.3" target-y="295.8"></path><path d="M 374.30 295.80 L 375.30 295.80 L 375.30 336.80 L 374.30 336.80 Z" fill="#ffd77c" fill-rule="nonzero" node-id="546" stroke="#ffab50" stroke-linecap="butt" stroke-width="0.25" target-height="41" target-width="1" target-x="374.3" target-y="295.8"></path><path d="M 375.30 295.80 L 376.30 295.80 L 376.30 336.80 L 375.30 336.80 Z" fill="#ffd77c" fill-rule="nonzero" node-id="548" stroke="#ffab50" stroke-linecap="butt" stroke-width="0.25" target-height="41" target-width="1" target-x="375.3" target-y="295.8"></path><path d="M 376.30 295.80 L 377.30 295.80 L 377.30 336.80 L 376.30 336.80 Z" fill="#ffd77c" fill-rule="nonzero" node-id="550" stroke="#ffab50" stroke-linecap="butt" stroke-width="0.25" target-height="41" target-width="1" target-x="376.3" target-y="295.8"></path><path d="M 377.30 295.80 L 378.30 295.80 L 378.30 336.80 L 377.30 336.80 Z" fill="#ffd77c" fill-rule="nonzero" node-id="552" stroke="#ffab50" stroke-linecap="butt" stroke-width="0.25" target-height="41" target-width="1" target-x="377.3" target-y="295.8"></path><path d="M 378.30 295.80 L 379.30 295.80 L 379.30 336.80 L 378.30 336.80 Z" fill="#ffd77c" fill-rule="nonzero" node-id="554" stroke="#ffab50" stroke-linecap="butt" stroke-width="0.25" target-height="41" target-width="1" target-x="378.3" target-y="295.8"></path></svg>